<?xml version="1.0" encoding="utf-8"?>
<!-- Generator: Adobe Illustrator 19.0.0, SVG Export Plug-In . SVG Version: 6.00 Build 0)  -->
<svg version="1.1" id="Layer_1" xmlns="http://www.w3.org/2000/svg" xmlns:xlink="http://www.w3.org/1999/xlink" x="0px" y="0px"
	 viewBox="-289 291 500 500" style="enable-background:new -289 291 500 500;" xml:space="preserve">
<style type="text/css">
	.st0{fill:#929497;}
	.st1{fill:#F29E4C;}
	.st2{fill:#231F20;}
	.st3{fill:#404041;}
	.st4{fill:#ED810A;}
	.st5{fill:#58595B;}
	.st6{fill:#A51627;}
	.st7{fill:#BBBDBF;}
	.st8{fill:#E6E7E8;}
	.st9{fill:#F6921E;}
	.st10{fill:#FAAF40;}
	.st11{fill:#E81F41;}
	.st12{fill:#CE2439;}
	.st13{fill:#FFFFFF;}
	.st14{font-family:'ArialMT';}
	.st15{font-size:8.6276px;}
	.st16{display:none;}
	.st17{display:inline;}
	.st18{fill:#BE1E2D;}
	.st19{fill:#E94F3A;}
	.st20{display:inline;fill:#404041;}
	.st21{display:inline;fill:#58595B;}
	.st22{display:inline;fill:#FFFFFF;}
	.st23{font-size:11.4473px;}
	.st24{fill:#D0D2D3;}
	.st25{fill:#D8A675;}
	.st26{fill:#6D6E70;}
	.st27{fill:#B28256;}
	.st28{fill:#003A54;}
	.st29{fill:#3E3E3F;}
	.st30{fill:#D37016;}
	.st31{fill:#00182E;}
	.st32{fill:#302D2F;}
</style>
<g id="BACKGROUND">
</g>
<g id="OBJECTS">
	<g>
		<g>
			<path class="st0" d="M-27.1,625.9c0,0-7.6,8.6-5.5,17.8c0,0,2.6,3.2,20.5,5.2c15.9,1.8,20.9,0,20.9,0s5.6-5-3.8-9.1
				s-26.2-2.7-26-11.3s7-15,7-15L-27.1,625.9z"/>
			<path class="st1" d="M-104,512.9c0,0-13.4,24.8,6.8,37.7C-77,563.5-26.4,558-16.8,564c9.6,5.9-14.4,65.3-14.4,65.3
				c5,6,14.5,3.5,14.5,3.5s28.3-63.3,20.4-82.6c-7.9-19.3-72.7-17-78.8-21.2c-6.1-4.1,0-16.3,0-16.3S-88.4,499.5-104,512.9z"/>
		</g>
		<path class="st1" d="M-6.5,504.4c0,0-36-2.4-60-10.5c-18.1-6.2,2.1-58.3,13.1-59.6c8.6-1.1,15.6,1.5,11.8,13.5
			c-4.8,14.9-22.5,27.4-13.4,34.2c9,6.8,50.4,12.4,50.4,12.4C-2.5,499.4-6.5,504.4-6.5,504.4z"/>
		<g>
			<path class="st2" d="M29.3,489.6l-9.5-23.8c-0.6-1.6-1.5-3.1-2.7-4.4c1-2.8,0.1-6.5-1.8-8.9c-3.8-5-16.8-4.2-16.9,0.9
				c0,8.2,13.7,12.4,17,10.2c0.7,1,1.3,2,1.8,3.2l8.9,22.2c-1.1,0.4-2.2,1.2-2.2,1.2c0.1,2.9,8.4,3.6,8.5,2.7
				C32.5,492.2,30.7,490.6,29.3,489.6z"/>
			<g>
				<path class="st2" d="M-169.8,570.5c-0.3,0-0.6-0.1-0.9-0.2l-39.1-16.2c-1.2-0.5-1.7-1.8-1.2-3s1.8-1.7,3-1.2l39.1,16.2
					c1.2,0.5,1.7,1.8,1.2,3C-168.1,569.9-168.9,570.5-169.8,570.5z"/>
			</g>
			<g>
				<circle class="st3" cx="92.9" cy="662" r="43"/>
				<circle class="st2" cx="92.9" cy="662" r="24.6"/>
			</g>
			<path class="st4" d="M131.4,631.5c0,0-33.8-1.5-43.4,9.9c-9.6,11.4-26.8,23.2-43.7,23.2c0,0-7.7-33.8,23.9-49.6
				C99.8,599.1,125.9,617.5,131.4,631.5z"/>
			<circle class="st5" cx="92.9" cy="662" r="11"/>
			<g>
				<path class="st3" d="M92.9,666.5c-1.4,0-2.7-0.6-3.6-1.8L40,600.3c-1.5-2-1.1-4.8,0.8-6.4c2-1.5,4.8-1.1,6.4,0.8l49.3,64.4
					c1.5,2,1.1,4.8-0.8,6.4C94.8,666.2,93.8,666.5,92.9,666.5z"/>
			</g>
			<path class="st2" d="M-123.8,613.4c0,0-18,44.9-18,53.2c0,8.3-0.9,10.9,14.7,10.9s46,0,46,0l-8-54.1l-36-10"/>
			<g>
				
					<rect x="-118.9" y="605.3" transform="matrix(-0.9831 -0.1831 0.1831 -0.9831 -343.4906 1226.7197)" class="st3" width="7.6" height="47.8"/>
				<g>
					<path class="st6" d="M-107.3,616.4c-0.3,0-0.5-0.2-0.8-0.3l-9.6-7.2c-0.8-0.6-1-1.7-0.4-2.5c0.6-0.8,1.7-1,2.5-0.4l9.6,7.2
						c0.8,0.6,1,1.7,0.4,2.5C-105.9,616.2-106.6,616.5-107.3,616.4z"/>
				</g>
				<g>
					<path class="st6" d="M-108.9,625.3c-0.3,0-0.5-0.2-0.8-0.3l-9.6-7.2c-0.8-0.6-1-1.7-0.4-2.5s1.7-1,2.5-0.4l9.6,7.2
						c0.8,0.6,1,1.7,0.4,2.5C-107.6,625.1-108.3,625.4-108.9,625.3z"/>
				</g>
				<g>
					<path class="st6" d="M-110.6,634.2c-0.3,0-0.5-0.2-0.8-0.3l-9.6-7.2c-0.8-0.6-1-1.7-0.4-2.5s1.7-1,2.5-0.4l9.6,7.2
						c0.8,0.6,1,1.7,0.4,2.5C-109.2,634.1-109.9,634.3-110.6,634.2z"/>
				</g>
				<g>
					<path class="st4" d="M-112.3,643.1c-0.3,0-0.5-0.2-0.8-0.3l-9.6-7.2c-0.8-0.6-1-1.7-0.4-2.5c0.6-0.8,1.7-1,2.5-0.4l9.6,7.2
						c0.8,0.6,1,1.7,0.4,2.5C-110.9,643-111.6,643.2-112.3,643.1z"/>
				</g>
				<g>
					<path class="st4" d="M-113.9,652c-0.3,0-0.5-0.2-0.8-0.3l-9.6-7.2c-0.8-0.6-1-1.7-0.4-2.5s1.7-1,2.5-0.4l9.6,7.2
						c0.8,0.6,1,1.7,0.4,2.5C-112.6,651.9-113.3,652.1-113.9,652z"/>
				</g>
			</g>
			<g>
				<circle class="st3" cx="-173.6" cy="662" r="43"/>
				<circle class="st2" cx="-173.6" cy="662" r="24.6"/>
			</g>
			<path class="st1" d="M-204.6,625.5l4.6,3.1c1.8,1.2,4,1.5,6,0.7c6.2-2.3,20.9-6.1,35.1,2.5c19.9,12.1,19.9,38.1,19.9,38.1h15.2
				c0,0,0.4-40.9-25.2-54.1c-24.6-12.6-46.2-2.8-55.9,7.4C-205.5,623.9-205.4,625-204.6,625.5z"/>
			<path class="st5" d="M-82.1,674.9h-89.1c-6.8,0-12.2-5.5-12.2-12.2l0,0c0-6.8,5.5-12.2,12.2-12.2h89.1V674.9z"/>
			<path class="st5" d="M35.9,522.4c0,0-8.4-8-20.5-8s-10.5,4-10.5,4s11.4,40.4,11,50.6s-26.5,81.5-33,81.5
				c-6.4,0-35.4-7.4-36.1-12.9c-0.7-5.5-6.9-40.9,3-52.1l-85.3-11.2l66.5,91.2l91.1,2.9l0.7-49L52,576.7L35.9,522.4z"/>
			<path class="st4" d="M97.1,595.6h-9.6c-7.1,0-52.7,53.5-52.7,53.5l0,0c0.4,0.8,14.7,27.6,11.8,30.7c-2.8,3-123.3,3.9-136.7,0.4
				c-0.5-0.1-0.9-0.3-1.1-0.4c-1.9-1.5-7-10.1-12.6-20.1c-9.1-16.3-19.6-36.6-19.6-36.6s-61.1-27.6-73.6-63.8c0,0,16.2-5.5,57.3-5.5
				l52.3,12.6c0,0,23.4,35.4,28.3,84.2l71.1,9.8L2,630.9c-0.4-1.1-0.6-2.3-0.6-3.5c0-1.4,0.3-2.8,0.9-4.2l19.4-43.3
				c2.8-6.2,3-13.3,0.7-19.6L9.9,523.5c-0.1-0.4-0.2-0.7-0.2-1.1c0-1.6,1.3-3.1,2.9-3.1h26.7c0,0,35,10.8,61.3,70.1
				C101.8,592.4,100,595.6,97.1,595.6z"/>
			<path class="st3" d="M-170.6,539.4l38.9-1.2c2.6,0.2,5.8,0.2,7.3,2.3c7.5,10.4,31.4,21.7,51.6,21.7c25.1,0,31.1,22.3,24.4,26.3
				c-6.6,3.9-49.1,1.4-88.5-15.7l-43.4-16.6C-180.1,556.1-179.4,539.4-170.6,539.4z"/>
			<path class="st7" d="M40.7,529.9L40.7,529.9c1.7-1.4,4.1-1.8,6.2-1l31.5,13.2c1.3,0.5,2.4,1.3,3.3,2.4
				c4.9,5.6,20.2,24.5,13.8,34.3c0,0-28.4-9.7-55.2-45.1C39.3,532.6,39.6,530.9,40.7,529.9z"/>
			
				<ellipse transform="matrix(-0.2243 -0.9745 0.9745 -0.2243 -445.5805 761.5135)" class="st8" cx="80.3" cy="558.1" rx="14.7" ry="4.1"/>
			<path class="st9" d="M43.5,537.9c0,0,37.6,18.6,45.6,38.1c0,0-18.8,1.3-28.3-5.9C51.3,562.9,43.5,537.9,43.5,537.9z"/>
			
				<ellipse transform="matrix(-0.2243 -0.9745 0.9745 -0.2243 -466.1216 757.1897)" class="st10" cx="68.3" cy="564.1" rx="9.2" ry="2.6"/>
			
				<ellipse transform="matrix(-0.2243 -0.9745 0.9745 -0.2243 -473.3683 737.4175)" class="st10" cx="56.8" cy="557.1" rx="4.6" ry="1.3"/>
			<path class="st1" d="M59.4,580.1c0.6,4.8-38.1,59.2-42.6,61.2c-2.5,1.1-9.7-6.2-15.5-13.8c0-1.4,0.3-2.8,0.9-4.2L21.6,580
				c2.8-6.2,3-13.3,0.7-19.6L9.8,523.6c-0.1-0.4-0.2-0.7-0.2-1.1c1.8-0.3,3.7-0.4,5,0.2C18.1,524.2,58.8,575.3,59.4,580.1z"/>
			<path class="st3" d="M46.5,679.8c-2.8,3-123.3,3.9-136.7,0.4c-0.5-0.1-0.9-0.3-1.1-0.4c-1.9-1.5-7-10.1-12.6-20.1l41.6-2l80,8.8
				c0,0-7.1-13.3-5.4-16c1.7-2.7,22.4-1.4,22.4-1.4l0,0C35.2,649.9,49.4,676.7,46.5,679.8z"/>
			<path class="st1" d="M-62.2,657.7l-27.9,22.5c-0.5-0.1-0.9-0.3-1.1-0.4c-4.9-3.9-32.2-56.7-32.2-56.7s-61.1-27.6-73.6-63.8
				c0,0,85.2,31.6,99,39.7C-84.3,607.3-62.2,657.7-62.2,657.7z"/>
			<path class="st4" d="M-165.5,584.3l-11.8-1.7l0,0l-5.6-0.8c0,0-5,0-11.7-7.9c-6.6-7.8-5.6-9.5-1.1-11l12.9,5.3l12.3,5
				c1.4,0.5,2.5,1.5,3.3,2.7l3.5,5.3C-162.6,582.7-163.8,584.6-165.5,584.3z"/>
			<path class="st9" d="M-165.5,584.3l-11.8-1.7l0,0c-1.9-0.3-7.6-11-8.2-12.2s2.8-2.2,2.8-2.2l12.3,5c1.4,0.5,2.5,1.5,3.3,2.7
				l3.5,5.3C-162.6,582.7-163.8,584.6-165.5,584.3z"/>
			<path class="st1" d="M46.9,514.4c-1,0.7-2.3,1.2-3.8,1.6c-8.7,2.4-24.8,1.2-34.2,1.2c-6.1,0-21.3-11.4-21-13.2
				c0.2-1.2,1.2-3.2,2.7-5.6c3.6-5.6,10.4-12.7,17.3-13.5C32.5,482.2,53.6,509.9,46.9,514.4z"/>
			<path class="st1" d="M46.9,514.4c-1,0.7-2.3,1.2-3.8,1.6c-26.3-2-40.2-20.4-49-18.9c-1.4,0.2-2.5,0.7-3.5,1.2
				c3.6-5.6,10.4-12.7,17.3-13.5C32.5,482.2,53.6,509.9,46.9,514.4z"/>
			<ellipse class="st10" cx="-176.1" cy="577.7" rx="1.7" ry="4.1"/>
			<ellipse class="st1" cx="-191" cy="572.3" rx="1.7" ry="4.1"/>
			<g>
				<ellipse transform="matrix(-0.5 -0.866 0.866 -0.5 -412.5515 740.2438)" class="st11" cx="7.4" cy="489.2" rx="2.8" ry="4.5"/>
				<ellipse transform="matrix(-0.5 -0.866 0.866 -0.5 -417.5182 747.1248)" class="st11" cx="6.9" cy="494.1" rx="1.2" ry="1.9"/>
			</g>
			<g>
				
					<ellipse transform="matrix(0.2736 -0.9618 0.9618 0.2736 -515.7354 548.0814)" class="st4" cx="105" cy="615.5" rx="2.8" ry="4.5"/>
				
					<ellipse transform="matrix(0.2736 -0.9618 0.9618 0.2736 -521.558 546.5536)" class="st11" cx="101.1" cy="618.6" rx="1.2" ry="1.9"/>
			</g>
			<g>
				
					<ellipse transform="matrix(-0.1521 -0.9884 0.9884 -0.1521 -814.7152 530.7076)" class="st4" cx="-179.7" cy="614.8" rx="2.8" ry="4.5"/>
				
					<ellipse transform="matrix(-0.1521 -0.9884 0.9884 -0.1521 -821.7057 533.5147)" class="st12" cx="-182" cy="619.2" rx="1.2" ry="1.9"/>
			</g>
			<g>
				<path class="st2" d="M-111.8,581.1c-0.3,0-0.5,0-0.8-0.2l-61.7-23.9c-2.8-1.1-5.7-1.6-8.7-1.6h-88.6c-1.3,0-2.3-1-2.3-2.3
					c0-1.3,1-2.3,2.3-2.3h88.6c3.6,0,7,0.7,10.4,1.9l61.7,23.9c1.2,0.5,1.7,1.8,1.3,2.9C-110,580.6-110.9,581.1-111.8,581.1z"/>
			</g>
			<path class="st2" d="M12.9,495.5L1.6,471.6c-1.6-3.3-4.3-6.1-7.5-7.9l-6.2-3.3l-1.3,2.4l6.2,3.3c2.8,1.5,5,3.8,6.3,6.6L9.6,495
				c-1.1,0.5-2.2,1.4-2.2,1.4c0.3,3,8.9,3.2,8.9,2.2C16.4,498,14.5,496.4,12.9,495.5z"/>
			<path class="st3" d="M-24.6,461.1c-1.1-5.2,11.9-8.8,16.8-4.5c3.1,2.6,5,7.8,2.8,11C-7.3,470.8-22.8,469.6-24.6,461.1z"/>
			<g>
				<polygon class="st13" points="34.4,579.1 27,575.9 25.8,579.1 				"/>
				<polygon class="st13" points="22.2,588.5 41.7,588.5 50.1,585.8 44.7,583.5 24.1,583.5 				"/>
				<polygon class="st13" points="25.3,580.3 24.6,582.2 41.7,582.2 37.3,580.3 				"/>
				<polygon class="st13" points="31.9,591.7 37.8,589.8 21.7,589.8 21,591.7 				"/>
				<polygon class="st13" points="20.5,592.9 19.5,595.7 28,592.9 				"/>
			</g>
			<text transform="matrix(0.8925 0.3251 -0.5677 0.8233 -156.608 583.4543)" class="st13 st14 st15">DELIVERY</text>
		</g>
		<g class="st16">
			<g class="st17">
				<path class="st18" d="M-188.4,455.6h-74.4c-4.8,0-8.7,3.9-8.7,8.7v40.1c0,1.3,1,2.3,2.3,2.3h88.6v-43.2
					C-180.6,459.1-184.1,455.6-188.4,455.6z"/>
				<path class="st18" d="M-267.1,511.2c-3.5,0-6.3,2.8-6.3,6.3V539c0,3.5,2.8,6.3,6.3,6.3h3.5v-34.1H-267.1L-267.1,511.2z"/>
				<path class="st19" d="M-187.1,458.4h-75.7c-3.6,0-6.5,2.9-6.5,6.5v80.9c0,3.6,2.9,6.5,6.5,6.5h75.7c3.6,0,6.5-2.9,6.5-6.5v-80.9
					C-180.6,461.3-183.5,458.4-187.1,458.4z"/>
				<path class="st18" d="M-200.7,511.2h-49.6c-3.8,0-7,3.1-7,7v20.2c0,3.8,3.1,7,7,7h49.6c3.8,0,7-3.1,7-7v-20.2
					C-193.7,514.4-196.8,511.2-200.7,511.2z"/>
				<path class="st3" d="M-197.2,519.5h-56.9c-0.4,0-0.7,0.3-0.7,0.7c0,0.4,0.3,0.7,0.7,0.7h56.9c0.4,0,0.7-0.3,0.7-0.7
					C-196.5,519.8-196.8,519.5-197.2,519.5z"/>
				<path class="st3" d="M-271.5,519h-1.9v1.9h1.9c0.5,0,0.9-0.4,0.9-0.9C-270.6,519.4-271,519-271.5,519z"/>
			</g>
			<rect x="-192.7" y="458.4" class="st20" width="4.3" height="93.9"/>
			<rect x="-263.4" y="458.4" class="st20" width="4.3" height="93.9"/>
			<path class="st21" d="M-259.2,509h-4.1c-0.6,0-1.1-0.5-1.1-1.1v-4.1c0-0.6,0.5-1.1,1.1-1.1h4.1c0.6,0,1.1,0.5,1.1,1.1v4.1
				C-258,508.5-258.5,509-259.2,509z"/>
			<path class="st21" d="M-188.5,509h-4.1c-0.6,0-1.1-0.5-1.1-1.1v-4.1c0-0.6,0.5-1.1,1.1-1.1h4.1c0.6,0,1.1,0.5,1.1,1.1v4.1
				C-187.4,508.5-187.9,509-188.5,509z"/>
			<text transform="matrix(0.9499 0 -0.2516 0.9678 -254.9715 490.4213)" class="st22 st14 st23">DELIVERY</text>
			<g class="st17">
				<polygon class="st13" points="-228.2,476.6 -238.9,472.1 -240.6,476.6 				"/>
				<polygon class="st13" points="-241.3,478.4 -242.3,481.1 -217.6,481.1 -224,478.4 				"/>
				<polygon class="st13" points="-231.8,494.7 -223.3,492 -246.5,492 -247.5,494.7 				"/>
				<polygon class="st13" points="-248.2,496.5 -249.7,500.5 -237.4,496.5 				"/>
			</g>
		</g>
		<g>
			<path class="st24" d="M-42.5,629.5c0,0-7.6,8.6-5.5,17.8c0,0,2.6,3.2,20.5,5.2c15.9,1.8,20.9,0,20.9,0s5.6-5-3.8-9.1
				c-9.4-4.1-26.2-2.7-26-11.3s7-15,7-15L-42.5,629.5z"/>
			<path class="st4" d="M-119.4,516.5c0,0-13.4,24.8,6.8,37.7c20.2,12.9,70.8,7.4,80.4,13.4c9.6,5.9-14.4,65.3-14.4,65.3
				c5,6,14.5,3.5,14.5,3.5s32.9-63.3,24.9-82.6c-7.9-19.3-61.9-20.7-67.9-24.8c-6.1-4.1,0-16.3,0-16.3S-103.8,503.1-119.4,516.5z"/>
			<path class="st25" d="M-37.9,403.2c0,0-5.6,20.3-15.3,26.2l13.8,9.5c0,0,12.4-20.8,24.6-24.6C-2.4,410.5-37.9,403.2-37.9,403.2z"
				/>
			<g>
				<path class="st4" d="M3.5,417.1C2,424.4-1.2,426-1.2,426c-8.6,4.5-50.7-4.8-56.3-16.8c-7.7-16.5-8-53.8,30.7-50
					c8.8,0.9,16.1,5.5,21.4,12.3c0.1,0.1,0.2,0.3,0.3,0.4c0.2,0.2,0.3,0.4,0.4,0.6c0.2,0.3,0.4,0.6,0.7,0.9c0.1,0.2,0.3,0.4,0.4,0.6
					c0.5,0.8,1,1.6,1.5,2.5c0.1,0.2,0.2,0.4,0.3,0.6c0.1,0.2,0.2,0.4,0.3,0.6C4.5,388.8,6.4,403.3,3.5,417.1z"/>
				<path class="st3" d="M5.1,413.2l-0.8,0.6c0,0-5.7,0.2-13.2-0.9c-0.4-0.1-0.8-0.1-1.1-0.2c-1.3-0.2-2.6-0.4-3.9-0.7
					c-2-0.4-4.1-0.9-6.1-1.6c-1.5-0.5-3.1-1-4.6-1.6c-0.6-0.2-1.2-0.5-1.8-0.8c-0.4-0.2-0.8-0.4-1.3-0.6c0,0-4-6-3.3-14.4
					c0.8-10.2,5.5-12.4,5.5-12.4s8.4,2.3,16.2,3.7c0.7,0.1,1.4,0.3,2.1,0.4c1.9,0.3,3.7,0.6,5.2,0.7c1.6,0.2,2.9,0.2,3.9,0.1
					l0.8,0.7c0.2,0.6,0.5,1.3,0.7,1.9c0.5,1.5,0.9,3,1.2,4.4c0.1,0.5,0.2,0.9,0.3,1.4C6.2,401,5.6,407.2,5.1,413.2z"/>
				<g>
					<ellipse transform="matrix(-0.5 -0.866 0.866 -0.5 -389.069 511.1304)" class="st4" cx="-47" cy="367.9" rx="2.8" ry="4.5"/>
					<ellipse transform="matrix(-0.5 -0.866 0.866 -0.5 -394.208 517.8342)" class="st4" cx="-47.6" cy="372.7" rx="1.2" ry="1.9"/>
				</g>
				<g>
					<path class="st13" d="M-5,372h-0.5l0.2-0.4C-5.2,371.7-5.1,371.8-5,372z"/>
					<path class="st13" d="M-2,376.6h-5.3l0.9-2.5h2.8C-3,374.9-2.5,375.7-2,376.6z"/>
					<path class="st13" d="M-3.9,373.5h-2.2l0.4-0.9h1.2C-4.3,372.9-4.1,373.2-3.9,373.5z"/>
					<path class="st13" d="M-1.4,377.7l-1.2,0.4h-5.3l0.3-0.9h5.9C-1.5,377.4-1.5,377.6-1.4,377.7z"/>
					<polygon class="st13" points="-8.1,378.7 -8.6,380.1 -4.4,378.7 					"/>
				</g>
				<path class="st26" d="M-7.1,384.8l-17.5,24.1c-0.6-0.2-1.2-0.5-1.8-0.8l17.2-23.7C-8.5,384.6-7.8,384.7-7.1,384.8z"/>
				<path class="st26" d="M3.4,388.2L-14,412.1c-2-0.4-4.1-0.9-6.1-1.6l18.1-25c1.6,0.2,2.9,0.2,3.9,0.1l0.8,0.7
					C3,386.9,3.2,387.5,3.4,388.2z"/>
				<path class="st26" d="M4.9,393.9l-13.8,19c-0.4-0.1-0.8-0.1-1.1-0.2l14.7-20.2C4.7,393,4.8,393.5,4.9,393.9z"/>
				<path class="st1" d="M-48.9,390.4c0.4-10.3,7.9-17,17.2-14.4c15.5,4.4,10.8,35.3,10.8,35.3S-49.6,410.1-48.9,390.4z"/>
			</g>
			<path class="st4" d="M-30.9,432.7l-7.6,5.3c0,0-2.5,31.1-25,64.8c-2.9,4.3-6,8.6-9.6,12.9c0,0,2.9,10.4-2,13.2
				c-10.5,5.8-48-1.8-48-1.8c-3.8-5.9,6.9-46.1,31.6-74.5c8.8-10.1,19.3-18.7,31.5-23.7l3.2-8.4c0.7-1.9,2.9-2.8,4.7-1.8l20.9,10.4
				C-29.7,429.8-29.5,431.8-30.9,432.7z"/>
			<path class="st24" d="M-73,515.7c0,0,2.9,10.4-2,13.2c-10.5,5.8-48-1.8-48-1.8c-3.8-5.9,6.9-46.1,31.6-74.5c0,0,5.2,4.2,9.9,26
				c4.7,22.1,18.2,24.1,18.2,24.1C-66.3,507-69.5,511.4-73,515.7z"/>
			<g>
				<path class="st1" d="M-24.6,514.4c0,0-38.8-5.1-62.8-13.2c-18.1-6.2,7.6-61,18.6-62.4c8.6-1.1,15.6,1.5,11.8,13.5
					c-4.8,14.9-27.9,30.1-18.9,36.9c9,6.8,53.2,15.1,53.2,15.1C-20.6,509.3-24.6,514.4-24.6,514.4z"/>
				<path class="st6" d="M-24.6,514.4c0,0-2.5-6.8,1.9-10C-20.6,509.3-24.6,514.4-24.6,514.4z"/>
				<g>
					<g>
						<circle class="st26" cx="-5" cy="507.4" r="4.9"/>
					</g>
					<g>
						<path class="st25" d="M-23,505c0,0,5.3,1.9,7.3,0c2-1.8,10.2-9.3,15.6-5.2c5.4,4.1-7.7,5.2-9.9,7.6c-2.2,2.3,0.8,3.5,0.1,5.7
							c-0.7,2.2-3.1,1.7-8.5-0.8c-2.9-1.3-6.1-1.3-6.1-1.3S-25.2,505.8-23,505z"/>
					</g>
					<g>
						<path class="st3" d="M-17.2,510.1l-1.1-2.3l12.4-2.8c0,0,3.1,0.3,2.4,3.7c-0.7,3.5-11,8.1-11,8.1L-17.2,510.1z"/>
					</g>
					<g>
						<circle class="st26" cx="-16.3" cy="512.4" r="4.9"/>
					</g>
					<g>
						<path class="st3" d="M6.2,506.8c0,0-2.9-2.7-5-2.4c-2.1,0.3-5.3,7.5-2.9,10.8c1.5,2.1,6.8-0.3,5.2-1.1c-2.2-1-2.3-3-0.4-3.9
							C5.6,508.9,7,508.8,6.2,506.8z"/>
					</g>
					<g>
						<ellipse class="st26" cx="1.2" cy="514.9" rx="3" ry="1.4"/>
					</g>
					<g>
						<path class="st25" d="M-13.3,506.7c2.1,0,4.6,1.9,4.9,3.5c0.2,1.6-2.2,4.7-2.2,4.7c3.1,0.7,3.9-0.5,3.9-0.5s2.2-0.2,3.3-3
							c0.5-1.2,0.8-3.5,0.6-5.3c1.1,0.4,1.9,1,2.1,2.1c0.1,0.7,0.4,1.4,0.7,2c0.8,1.5,2,2.7,2,2.7s2.5-0.4,3.4-2.4
							c0.8-2-1.5-9.8-6.2-11.1c-0.6-0.2-5.1,1-5.3,2.1c-0.6-0.1-1-0.2-1-0.2c-1.2,0.5-2,1.4-2.4,2.3
							C-11.9,504.4-15.2,506.7-13.3,506.7z"/>
					</g>
					<g>
						<path class="st27" d="M2.5,512.7c0,0,0.3-1.7,0.6-3c0.3-1.3-2.9-7.1-3.6-7.3s-7.1-0.7-7-1.1c0-0.4,3.3-0.6,4.7-0.3
							c1.4,0.3,2.4,0.1,3.4,1.4c0.9,1.2,3.4,5.8,3.2,6.9C3.7,510.2,2.5,512.7,2.5,512.7z"/>
					</g>
					<g>
						<path class="st27" d="M-4.4,504.4c1.3,0.1,1.5,1.7,1.5,1.7c1.1,0.4,1.9,1,2.1,2.1c0.1,0.7,0.4,1.4,0.7,2
							c0.9-2.3-1.4-3.8-1.7-3.9c-0.3-0.1-1.3-2.1-2-2.6s-5.1-0.7-5.4-0.4C-9.4,503.6-5.7,504.3-4.4,504.4z"/>
					</g>
					<g>
						<path class="st27" d="M-6.8,514.4c0,0,0.9-1.5,1.1-3c0.2-1.5,0.1-3.6-1.1-4.2c-1.2-0.6-3.9-1.8-3.6-2.2
							c0.3-0.3,3.2,1.5,4.2,1.6s1.7,0.7,1.3,2.9C-5.2,511.7-5.2,513.4-6.8,514.4z"/>
					</g>
				</g>
				<g>
					<polygon class="st13" points="-71.7,451.9 -75.8,450.2 -76.4,451.9 					"/>
					<polygon class="st13" points="-78.4,457.1 -67.7,457.1 -63.2,455.6 -66.1,454.3 -77.3,454.3 					"/>
					<polygon class="st13" points="-76.7,452.6 -77.1,453.6 -67.7,453.6 -70.1,452.6 					"/>
					<polygon class="st13" points="-73.1,458.8 -69.9,457.8 -78.6,457.8 -79,458.8 					"/>
					<polygon class="st13" points="-79.3,459.5 -79.9,461 -75.2,459.5 					"/>
				</g>
			</g>
			<g>
				<path class="st1" d="M-108.1,526.3c0,0,18.1,6.6,31.2,3.4c0,0-12.4,11.6-29.9,11.3L-108.1,526.3z"/>
				<path class="st4" d="M-132.2,517.6c-4.1,1.2-7.3,17-5.2,20.9s26.8,11,30.6,7s8.6-16.7,6.8-19.2
					C-101.8,523.7-128.1,516.4-132.2,517.6z"/>
				<path class="st1" d="M-136.5,518.5c0,0-3.9,10.4,1.1,12.6c5,2.1,21.2,6,23.6,5.8c2.4-0.2,10.5-11.5,10.5-11.5s-1.7-4.8-17.1-7.8
					S-135.6,515.3-136.5,518.5z"/>
				<path class="st4" d="M-127.2,528.3l4.5,1.3c0,0-2.9,6.3-2.3,8.6l-4.7-1.4C-129.6,536.8-129.9,530.6-127.2,528.3z"/>
			</g>
		</g>
	</g>
	<g>
		<g>
			<path class="st2" d="M-204.1,483.5l5.3-5.4c0.3-0.3,0.7-0.3,1,0l19,18.8c0.3,0.3,0.3,0.7,0,1l-5.5,5.6c0.9,1,1.8,2,2.6,3l8.1-8.2
				c0.4-0.4,0.4-0.9,0-1.3l-24.4-24.1c-0.4-0.4-0.9-0.4-1.3,0l-7.6,7.7C-206,481.6-205.1,482.6-204.1,483.5z"/>
			<path class="st4" d="M-211,479h-18.7c-2.7,0-5,2.2-5,5v62c0,2.7,2.2,5,5,5h47.4c2.7,0,5-2.2,5-5v-37.4c0,0,0.4-3.5-2.8-5.7
				l-20.9-20.3C-201,482.6-204.7,479-211,479z"/>
			<path class="st1" d="M-190.4,513.1v37.4c0,0.1,0,0.2,0,0.3h6.8c0.5-0.8,0.8-1.7,0.8-2.7v-37.4c0,0,0.4-3.5-2.8-5.7l-20.9-20.3
				c0,0-3.7-3.6-9.9-3.6h-16.5v2.4h8.9c6.3,0,9.9,3.6,9.9,3.6l20.9,20.3C-190,509.6-190.4,513.1-190.4,513.1z"/>
			<rect x="-229.7" y="474.1" class="st28" width="20.7" height="5"/>
			<path class="st29" d="M-210.1,472.8c0,0.7-0.5,1.2-1,1.2h-16.5c-0.6,0-1-0.6-1-1.2v-4.5c0-0.7,0.5-1.2,1-1.2h16.5
				c0.6,0,1,0.6,1,1.2V472.8z"/>
			<path class="st30" d="M-194.8,547.9c-3.1-1.5-6.1-3.3-8.7-5.4c-3-2.4-5.5-5.3-7.8-8.4c-5.2-6.9-9.2-14.8-11.8-23
				c-2.4-7.5-4.4-15.4-5.2-23.2c-0.3-2.8-0.5-5.8-0.4-8.8h-0.9c-2.7,0-5,2.2-5,5v62c0,2.7,2.2,5,5,5h42.2
				C-190,550.1-192.4,549.1-194.8,547.9z"/>
			<rect x="-229.7" y="476.5" class="st31" width="20.7" height="2.5"/>
			<path class="st32" d="M-214.5,472.2c-3.3-0.2-6.7-0.7-9.7-2.1c-1.3-0.6-2.6-1.2-3.5-2.2c-0.2-0.2-0.3-0.4-0.5-0.6
				c-0.3,0.2-0.4,0.6-0.4,1v4.5c0,0.7,0.5,1.2,1,1.2h16.5c0.6,0,1-0.6,1-1.2v-1C-211.5,472.2-213,472.3-214.5,472.2z"/>
			<g>
				<path class="st5" d="M-227,472.9c0,0.2-0.1,0.3-0.3,0.3l0,0c-0.2,0-0.3-0.1-0.3-0.3v-4.7c0-0.2,0.2-0.3,0.3-0.3l0,0
					c0.2,0,0.3,0.1,0.3,0.3V472.9z"/>
				<path class="st5" d="M-225.9,472.9c0,0.2-0.1,0.3-0.3,0.3l0,0c-0.2,0-0.3-0.1-0.3-0.3v-4.7c0-0.2,0.1-0.3,0.3-0.3l0,0
					c0.2,0,0.3,0.1,0.3,0.3V472.9z"/>
				<path class="st5" d="M-224.9,472.9c0,0.2-0.1,0.3-0.3,0.3l0,0c-0.2,0-0.3-0.1-0.3-0.3v-4.7c0-0.2,0.1-0.3,0.3-0.3l0,0
					c0.2,0,0.3,0.1,0.3,0.3V472.9z"/>
				<path class="st5" d="M-223.8,472.9c0,0.2-0.1,0.3-0.3,0.3l0,0c-0.2,0-0.3-0.1-0.3-0.3v-4.7c0-0.2,0.1-0.3,0.3-0.3l0,0
					c0.2,0,0.3,0.1,0.3,0.3V472.9z"/>
				<path class="st5" d="M-222.7,472.9c0,0.2-0.1,0.3-0.3,0.3l0,0c-0.2,0-0.3-0.1-0.3-0.3v-4.7c0-0.2,0.1-0.3,0.3-0.3l0,0
					c0.2,0,0.3,0.1,0.3,0.3V472.9z"/>
				<path class="st5" d="M-221.7,472.9c0,0.2-0.1,0.3-0.3,0.3l0,0c-0.2,0-0.3-0.1-0.3-0.3v-4.7c0-0.2,0.1-0.3,0.3-0.3l0,0
					c0.2,0,0.3,0.1,0.3,0.3V472.9z"/>
				<path class="st5" d="M-220.6,472.9c0,0.2-0.1,0.3-0.3,0.3l0,0c-0.2,0-0.3-0.1-0.3-0.3v-4.7c0-0.2,0.1-0.3,0.3-0.3l0,0
					c0.2,0,0.3,0.1,0.3,0.3V472.9z"/>
				<path class="st5" d="M-219.6,472.9c0,0.2-0.2,0.3-0.3,0.3l0,0c-0.2,0-0.3-0.1-0.3-0.3v-4.7c0-0.2,0.1-0.3,0.3-0.3l0,0
					c0.2,0,0.3,0.1,0.3,0.3V472.9z"/>
				<path class="st5" d="M-218.5,472.9c0,0.2-0.1,0.3-0.3,0.3l0,0c-0.2,0-0.3-0.1-0.3-0.3v-4.7c0-0.2,0.1-0.3,0.3-0.3l0,0
					c0.2,0,0.3,0.1,0.3,0.3V472.9z"/>
				<path class="st5" d="M-217.4,472.9c0,0.2-0.1,0.3-0.3,0.3l0,0c-0.2,0-0.3-0.1-0.3-0.3v-4.7c0-0.2,0.1-0.3,0.3-0.3l0,0
					c0.2,0,0.3,0.1,0.3,0.3V472.9z"/>
				<path class="st5" d="M-216.4,472.9c0,0.2-0.2,0.3-0.3,0.3l0,0c-0.2,0-0.3-0.1-0.3-0.3v-4.7c0-0.2,0.1-0.3,0.3-0.3l0,0
					c0.2,0,0.3,0.1,0.3,0.3V472.9z"/>
				<path class="st5" d="M-215.3,472.9c0,0.2-0.1,0.3-0.3,0.3l0,0c-0.2,0-0.3-0.1-0.3-0.3v-4.7c0-0.2,0.1-0.3,0.3-0.3l0,0
					c0.2,0,0.3,0.1,0.3,0.3V472.9z"/>
				<path class="st5" d="M-214.2,472.9c0,0.2-0.1,0.3-0.3,0.3l0,0c-0.2,0-0.3-0.1-0.3-0.3v-4.7c0-0.2,0.1-0.3,0.3-0.3l0,0
					c0.2,0,0.3,0.1,0.3,0.3V472.9z"/>
				<path class="st5" d="M-213.2,472.9c0,0.2-0.1,0.3-0.3,0.3l0,0c-0.2,0-0.3-0.1-0.3-0.3v-4.7c0-0.2,0.1-0.3,0.3-0.3l0,0
					c0.2,0,0.3,0.1,0.3,0.3V472.9z"/>
				<path class="st5" d="M-212.1,472.9c0,0.2-0.1,0.3-0.3,0.3l0,0c-0.2,0-0.3-0.1-0.3-0.3v-4.7c0-0.2,0.1-0.3,0.3-0.3l0,0
					c0.2,0,0.3,0.1,0.3,0.3V472.9z"/>
				<path class="st5" d="M-211,472.9c0,0.2-0.1,0.3-0.3,0.3l0,0c-0.2,0-0.3-0.1-0.3-0.3v-4.7c0-0.2,0.1-0.3,0.3-0.3l0,0
					c0.2,0,0.3,0.1,0.3,0.3V472.9z"/>
			</g>
		</g>
		<g>
			<circle class="st10" cx="-209" cy="520.7" r="13.1"/>
		</g>
		<g>
			<path class="st10" d="M-208.9,507.6C-208.9,507.6-209,507.6-208.9,507.6l-0.1,26.1h0.1c7.2,0,13.1-5.8,13.1-13.1
				C-195.8,513.4-201.7,507.6-208.9,507.6z"/>
		</g>
	</g>
	<g>
		<path class="st13" d="M-207.4,519.7l0.5,0.4c0.3,0.2,0.3,0.6,0.1,0.9l-5.4,6.3c-0.2,0.3-0.6,0.3-0.9,0.1l-0.5-0.4
			c-0.3-0.2-0.3-0.6-0.1-0.9l5.4-6.3C-208,519.5-207.7,519.5-207.4,519.7L-207.4,519.7z"/>
		<path class="st13" d="M-206.4,520.1L-206.4,520.1c0,0.6-0.4,1-1,1h-5c-0.5,0-1-0.4-1-0.9v-0.1c0-0.5,0.4-0.9,1-0.9h5
			C-206.9,519.2-206.4,519.6-206.4,520.1L-206.4,520.1z"/>
		<path class="st13" d="M-209.9,518.5c0.6,0,1.1-0.5,1.1-1.1c0-0.6-0.5-1.1-1.1-1.1c-0.6,0-1.1,0.5-1.1,1.1
			C-211,518.1-210.5,518.5-209.9,518.5L-209.9,518.5z"/>
		<g>
			<path class="st13" d="M-209.7,513.2c-4.2-0.1-7.6,3.3-7.6,7.5c0,1.8,0.6,3.4,1.7,4.7l1.4-1.6c-0.7-0.9-1.1-2-1.1-3.2
				c0-3,2.4-5.4,5.4-5.5c3.1,0,5.6,2.5,5.5,5.5c0,2.9-2.4,5.3-5.4,5.4c-1.2,0-2.3-0.3-3.2-1l-1.3,1.5c-0.1,0.1-0.1,0.2,0,0.2
				c1.2,0.9,2.7,1.4,4.4,1.4c4.2,0,7.6-3.4,7.5-7.6C-202.4,516.6-205.6,513.3-209.7,513.2z"/>
		</g>
		<path class="st13" d="M-214.2,525.3c0.4-0.5,0.4-1,0-1.5c-0.7,0.8-1.1,1.3-1.4,1.6C-215.2,525.7-214.7,525.7-214.2,525.3
			L-214.2,525.3z"/>
	</g>
	<g>
		<g>
			<path class="st2" d="M-240.1,483.5l5.3-5.4c0.3-0.3,0.7-0.3,1,0l19,18.8c0.3,0.3,0.3,0.7,0,1l-5.5,5.6c0.9,1,1.8,2,2.6,3l8.1-8.2
				c0.4-0.4,0.4-0.9,0-1.3l-24.4-24.1c-0.4-0.4-0.9-0.4-1.3,0l-7.6,7.7C-242,481.6-241.1,482.6-240.1,483.5z"/>
			<path class="st4" d="M-247,479h-18.7c-2.7,0-5,2.2-5,5v62c0,2.7,2.2,5,5,5h47.4c2.7,0,5-2.2,5-5v-37.4c0,0,0.4-3.5-2.8-5.7
				l-20.9-20.3C-237,482.6-240.7,479-247,479z"/>
			<path class="st1" d="M-226.4,513.1v37.4c0,0.1,0,0.2,0,0.3h6.8c0.5-0.8,0.8-1.7,0.8-2.7v-37.4c0,0,0.4-3.5-2.8-5.7l-20.9-20.3
				c0,0-3.7-3.6-9.9-3.6h-16.5v2.4h8.9c6.3,0,9.9,3.6,9.9,3.6l20.9,20.3C-226,509.6-226.4,513.1-226.4,513.1z"/>
			<rect x="-265.7" y="474.1" class="st28" width="20.7" height="5"/>
			<path class="st29" d="M-246.1,472.8c0,0.7-0.5,1.2-1,1.2h-16.5c-0.6,0-1-0.6-1-1.2v-4.5c0-0.7,0.5-1.2,1-1.2h16.5
				c0.6,0,1,0.6,1,1.2V472.8z"/>
			<path class="st30" d="M-230.8,547.9c-3.1-1.5-6.1-3.3-8.7-5.4c-3-2.4-5.5-5.3-7.8-8.4c-5.2-6.9-9.2-14.8-11.8-23
				c-2.4-7.5-4.4-15.4-5.2-23.2c-0.3-2.8-0.5-5.8-0.4-8.8h-0.9c-2.7,0-5,2.2-5,5v62c0,2.7,2.2,5,5,5h42.2
				C-226,550.1-228.4,549.1-230.8,547.9z"/>
			<rect x="-265.7" y="476.5" class="st31" width="20.7" height="2.5"/>
			<path class="st32" d="M-250.5,472.2c-3.3-0.2-6.7-0.7-9.7-2.1c-1.3-0.6-2.6-1.2-3.5-2.2c-0.2-0.2-0.3-0.4-0.5-0.6
				c-0.3,0.2-0.4,0.6-0.4,1v4.5c0,0.7,0.5,1.2,1,1.2h16.5c0.6,0,1-0.6,1-1.2v-1C-247.5,472.2-249,472.3-250.5,472.2z"/>
			<g>
				<path class="st5" d="M-263,472.9c0,0.2-0.1,0.3-0.3,0.3l0,0c-0.2,0-0.3-0.1-0.3-0.3v-4.7c0-0.2,0.2-0.3,0.3-0.3l0,0
					c0.2,0,0.3,0.1,0.3,0.3V472.9z"/>
				<path class="st5" d="M-261.9,472.9c0,0.2-0.1,0.3-0.3,0.3l0,0c-0.2,0-0.3-0.1-0.3-0.3v-4.7c0-0.2,0.1-0.3,0.3-0.3l0,0
					c0.2,0,0.3,0.1,0.3,0.3V472.9z"/>
				<path class="st5" d="M-260.9,472.9c0,0.2-0.1,0.3-0.3,0.3l0,0c-0.2,0-0.3-0.1-0.3-0.3v-4.7c0-0.2,0.1-0.3,0.3-0.3l0,0
					c0.2,0,0.3,0.1,0.3,0.3V472.9z"/>
				<path class="st5" d="M-259.8,472.9c0,0.2-0.1,0.3-0.3,0.3l0,0c-0.2,0-0.3-0.1-0.3-0.3v-4.7c0-0.2,0.1-0.3,0.3-0.3l0,0
					c0.2,0,0.3,0.1,0.3,0.3V472.9z"/>
				<path class="st5" d="M-258.7,472.9c0,0.2-0.1,0.3-0.3,0.3l0,0c-0.2,0-0.3-0.1-0.3-0.3v-4.7c0-0.2,0.1-0.3,0.3-0.3l0,0
					c0.2,0,0.3,0.1,0.3,0.3V472.9z"/>
				<path class="st5" d="M-257.7,472.9c0,0.2-0.1,0.3-0.3,0.3l0,0c-0.2,0-0.3-0.1-0.3-0.3v-4.7c0-0.2,0.1-0.3,0.3-0.3l0,0
					c0.2,0,0.3,0.1,0.3,0.3V472.9z"/>
				<path class="st5" d="M-256.6,472.9c0,0.2-0.1,0.3-0.3,0.3l0,0c-0.2,0-0.3-0.1-0.3-0.3v-4.7c0-0.2,0.1-0.3,0.3-0.3l0,0
					c0.2,0,0.3,0.1,0.3,0.3V472.9z"/>
				<path class="st5" d="M-255.6,472.9c0,0.2-0.2,0.3-0.3,0.3l0,0c-0.2,0-0.3-0.1-0.3-0.3v-4.7c0-0.2,0.1-0.3,0.3-0.3l0,0
					c0.2,0,0.3,0.1,0.3,0.3V472.9z"/>
				<path class="st5" d="M-254.5,472.9c0,0.2-0.1,0.3-0.3,0.3l0,0c-0.2,0-0.3-0.1-0.3-0.3v-4.7c0-0.2,0.1-0.3,0.3-0.3l0,0
					c0.2,0,0.3,0.1,0.3,0.3V472.9z"/>
				<path class="st5" d="M-253.4,472.9c0,0.2-0.1,0.3-0.3,0.3l0,0c-0.2,0-0.3-0.1-0.3-0.3v-4.7c0-0.2,0.1-0.3,0.3-0.3l0,0
					c0.2,0,0.3,0.1,0.3,0.3V472.9z"/>
				<path class="st5" d="M-252.4,472.9c0,0.2-0.2,0.3-0.3,0.3l0,0c-0.2,0-0.3-0.1-0.3-0.3v-4.7c0-0.2,0.1-0.3,0.3-0.3l0,0
					c0.2,0,0.3,0.1,0.3,0.3V472.9z"/>
				<path class="st5" d="M-251.3,472.9c0,0.2-0.1,0.3-0.3,0.3l0,0c-0.2,0-0.3-0.1-0.3-0.3v-4.7c0-0.2,0.1-0.3,0.3-0.3l0,0
					c0.2,0,0.3,0.1,0.3,0.3V472.9z"/>
				<path class="st5" d="M-250.2,472.9c0,0.2-0.1,0.3-0.3,0.3l0,0c-0.2,0-0.3-0.1-0.3-0.3v-4.7c0-0.2,0.1-0.3,0.3-0.3l0,0
					c0.2,0,0.3,0.1,0.3,0.3V472.9z"/>
				<path class="st5" d="M-249.2,472.9c0,0.2-0.1,0.3-0.3,0.3l0,0c-0.2,0-0.3-0.1-0.3-0.3v-4.7c0-0.2,0.1-0.3,0.3-0.3l0,0
					c0.2,0,0.3,0.1,0.3,0.3V472.9z"/>
				<path class="st5" d="M-248.1,472.9c0,0.2-0.1,0.3-0.3,0.3l0,0c-0.2,0-0.3-0.1-0.3-0.3v-4.7c0-0.2,0.1-0.3,0.3-0.3l0,0
					c0.2,0,0.3,0.1,0.3,0.3V472.9z"/>
				<path class="st5" d="M-247,472.9c0,0.2-0.1,0.3-0.3,0.3l0,0c-0.2,0-0.3-0.1-0.3-0.3v-4.7c0-0.2,0.1-0.3,0.3-0.3l0,0
					c0.2,0,0.3,0.1,0.3,0.3V472.9z"/>
			</g>
		</g>
		<g>
			<circle class="st10" cx="-245" cy="520.7" r="13.1"/>
		</g>
		<g>
			<path class="st10" d="M-244.9,507.6C-244.9,507.6-245,507.6-244.9,507.6l-0.1,26.1h0.1c7.2,0,13.1-5.8,13.1-13.1
				C-231.8,513.4-237.7,507.6-244.9,507.6z"/>
		</g>
	</g>
	<g>
		<path class="st13" d="M-243.4,519.7l0.5,0.4c0.3,0.2,0.3,0.6,0.1,0.9l-5.4,6.3c-0.2,0.3-0.6,0.3-0.9,0.1l-0.5-0.4
			c-0.3-0.2-0.3-0.6-0.1-0.9l5.4-6.3C-244,519.5-243.7,519.5-243.4,519.7L-243.4,519.7z"/>
		<path class="st13" d="M-242.4,520.1L-242.4,520.1c0,0.6-0.4,1-1,1h-5c-0.5,0-1-0.4-1-0.9v-0.1c0-0.5,0.4-0.9,1-0.9h5
			C-242.9,519.2-242.4,519.6-242.4,520.1L-242.4,520.1z"/>
		<path class="st13" d="M-245.9,518.5c0.6,0,1.1-0.5,1.1-1.1c0-0.6-0.5-1.1-1.1-1.1c-0.6,0-1.1,0.5-1.1,1.1
			C-247,518.1-246.5,518.5-245.9,518.5L-245.9,518.5z"/>
		<g>
			<path class="st13" d="M-245.7,513.2c-4.2-0.1-7.6,3.3-7.6,7.5c0,1.8,0.6,3.4,1.7,4.7l1.4-1.6c-0.7-0.9-1.1-2-1.1-3.2
				c0-3,2.4-5.4,5.4-5.5c3.1,0,5.6,2.5,5.5,5.5c0,2.9-2.4,5.3-5.4,5.4c-1.2,0-2.3-0.3-3.2-1l-1.3,1.5c-0.1,0.1-0.1,0.2,0,0.2
				c1.2,0.9,2.7,1.4,4.4,1.4c4.2,0,7.6-3.4,7.5-7.6C-238.4,516.6-241.6,513.3-245.7,513.2z"/>
		</g>
		<path class="st13" d="M-250.2,525.3c0.4-0.5,0.4-1,0-1.5c-0.7,0.8-1.1,1.3-1.4,1.6C-251.2,525.7-250.7,525.7-250.2,525.3
			L-250.2,525.3z"/>
	</g>
</g>
<g id="DESIGNED_BY_FREEPIK">
</g>
<rect id="XMLID_24_" x="275" y="320" class="st4" width="171" height="172.2"/>
</svg>
