<?xml version="1.0" encoding="utf-8"?>
<!-- Generator: Adobe Illustrator 19.0.0, SVG Export Plug-In . SVG Version: 6.00 Build 0)  -->
<svg version="1.1" id="Artboard_1" xmlns="http://www.w3.org/2000/svg" xmlns:xlink="http://www.w3.org/1999/xlink" x="0px" y="0px"
	 viewBox="-289 291 500 500" style="enable-background:new -289 291 500 500;" xml:space="preserve">
<style type="text/css">
	.st0{display:none;opacity:0.4;}
	.st1{display:inline;fill:#FFFFFF;}
	.st2{display:inline;fill:none;stroke:#FFFFFF;stroke-width:1.0969;stroke-miterlimit:10;}
	.st3{display:none;opacity:0.15;}
	.st4{display:inline;fill:none;stroke:#FFFFFF;stroke-width:1.2517;stroke-miterlimit:10;}
	.st5{display:none;}
	.st6{display:inline;}
	.st7{opacity:0.1;}
	.st8{fill:#FFFFFF;}
	.st9{display:inline;opacity:0.1;}
	.st10{fill:#5EAEF7;}
	.st11{fill:#268FEF;}
	.st12{fill:#075EDB;}
	.st13{fill:#E6E6E6;}
	.st14{fill:#8E6EE5;}
	.st15{fill:#7647DD;}
	.st16{fill:#ED810A;}
	.st17{fill:#F4BC89;}
	.st18{fill:#F2A151;}
	.st19{fill:#EFCB12;}
	.st20{fill:none;stroke:#000000;stroke-linecap:round;stroke-miterlimit:10;}
	.st21{fill:#AC94F7;}
	.st22{fill:none;stroke:#4650E0;stroke-linecap:round;stroke-miterlimit:10;}
	.st23{fill:none;stroke:#FFFFFF;stroke-width:23.1847;stroke-linecap:round;stroke-linejoin:round;stroke-miterlimit:10;}
</style>
<g>
	<g class="st0">
		<circle class="st1" cx="-251.9" cy="374.8" r="5"/>
		<circle class="st1" cx="-266.5" cy="589.8" r="5"/>
		<circle class="st1" cx="-156" cy="488.2" r="5"/>
		<circle class="st1" cx="60.5" cy="582.5" r="5"/>
		<circle class="st1" cx="189.7" cy="465.2" r="5"/>
		<circle class="st1" cx="68" cy="354.3" r="5"/>
		<circle class="st1" cx="159.9" cy="679.7" r="5"/>
		<circle class="st1" cx="-130.2" cy="687.3" r="5"/>
		<line class="st2" x1="-251.9" y1="374.8" x2="-156" y2="488.2"/>
		<line class="st2" x1="-156" y1="488.2" x2="-266.5" y2="589.8"/>
		<line class="st2" x1="-266.5" y1="589.8" x2="-130.2" y2="687.3"/>
		<line class="st2" x1="-130.2" y1="687.3" x2="60.5" y2="582.5"/>
		<line class="st2" x1="60.5" y1="582.5" x2="159.9" y2="679.7"/>
		<line class="st2" x1="159.9" y1="679.7" x2="189.7" y2="465.2"/>
		<line class="st2" x1="159.9" y1="679.7" x2="68" y2="354.3"/>
		<line class="st2" x1="68" y1="354.3" x2="189.7" y2="465.2"/>
		<line class="st2" x1="68" y1="354.3" x2="60.5" y2="582.5"/>
		<line class="st2" x1="68" y1="354.3" x2="-156" y2="488.2"/>
		<line class="st2" x1="-251.9" y1="374.8" x2="-266.5" y2="589.8"/>
		<line class="st2" x1="-251.9" y1="374.8" x2="189.7" y2="465.2"/>
		<line class="st2" x1="-130.2" y1="687.3" x2="-251.9" y2="374.8"/>
		<line class="st2" x1="-130.2" y1="687.3" x2="68" y2="354.3"/>
		<line class="st2" x1="60.5" y1="582.5" x2="-156" y2="488.2"/>
		<line class="st2" x1="-156" y1="488.2" x2="189.7" y2="465.2"/>
		<line class="st2" x1="-266.5" y1="589.8" x2="60.5" y2="582.5"/>
	</g>
	<g class="st3">
		<circle class="st1" cx="162.6" cy="373.4" r="5"/>
		<circle class="st1" cx="180.9" cy="608.6" r="5"/>
		<circle class="st1" cx="71.1" cy="487.5" r="5"/>
		<path class="st1" d="M-184.2,595.1c0,4.6,3.7,8.3,8.3,8.3s8.3-3.7,8.3-8.3s-3.7-8.3-8.3-8.3C-180.5,586.8-184.2,590.5-184.2,595.1
			z"/>
		<circle class="st1" cx="-267.6" cy="491" r="5"/>
		<circle class="st1" cx="-187.7" cy="332.3" r="5"/>
		<circle class="st1" cx="-236.5" cy="685" r="5"/>
		<circle class="st1" cx="31.9" cy="697.8" r="5"/>
		<line class="st4" x1="162.6" y1="373.4" x2="71.1" y2="487.5"/>
		<line class="st4" x1="71.1" y1="487.5" x2="180.9" y2="608.6"/>
		<line class="st4" x1="180.9" y1="608.6" x2="31.9" y2="697.8"/>
		<line class="st4" x1="31.9" y1="697.8" x2="-175.9" y2="595.1"/>
		<line class="st4" x1="-175.9" y1="595.1" x2="-236.5" y2="685"/>
		<line class="st4" x1="-236.5" y1="685" x2="-267.6" y2="491"/>
		<line class="st4" x1="-236.5" y1="685" x2="-187.7" y2="332.3"/>
		<line class="st4" x1="-187.7" y1="332.3" x2="-267.6" y2="491"/>
		<line class="st4" x1="-187.7" y1="332.3" x2="-175.9" y2="595.1"/>
		<line class="st4" x1="-187.7" y1="332.3" x2="71.1" y2="487.5"/>
		<line class="st4" x1="162.6" y1="373.4" x2="180.9" y2="608.6"/>
		<line class="st4" x1="162.6" y1="373.4" x2="-267.6" y2="491"/>
		<line class="st4" x1="31.9" y1="697.8" x2="162.6" y2="373.4"/>
		<line class="st4" x1="31.9" y1="697.8" x2="-187.7" y2="332.3"/>
		<line class="st4" x1="-175.9" y1="595.1" x2="71.1" y2="487.5"/>
		<line class="st4" x1="71.1" y1="487.5" x2="-267.6" y2="491"/>
		<line class="st4" x1="180.9" y1="608.6" x2="-175.9" y2="595.1"/>
	</g>
	<g class="st5">
		<g class="st6">
			<g class="st7">
				<path d="M-16.6,383c0-6.5-5.3-11.8-11.8-11.8c-2.1,0-4,0.5-5.7,1.5v-0.1c0-13-10.5-23.5-23.5-23.5c-10.6,0-19.6,7-22.5,16.7
					c-2-0.9-4.3-1.3-6.6-1.3c-9.5,0-17.3,7.7-17.3,17.3c0,0.8,0,6.2,0,6.2c0,6.4,5.2,11.6,11.6,11.6h64.2c6.4,0,11.6-5.2,11.6-11.6
					C-16.6,388-16.6,383.6-16.6,383z"/>
			</g>
			<g>
				<path class="st8" d="M-20.1,380.1c0-6.5-5.3-11.8-11.8-11.8c-2.1,0-4,0.5-5.7,1.5v-0.1c0-13-10.5-23.5-23.5-23.5
					c-10.6,0-19.6,7-22.5,16.7c-2-0.9-4.3-1.3-6.6-1.3c-9.5,0-17.3,7.7-17.3,17.3c0,0.8,0,6.2,0,6.2c0,6.4,5.2,11.6,11.6,11.6h64.2
					c6.4,0,11.6-5.2,11.6-11.6C-20.1,385.1-20.1,380.7-20.1,380.1z"/>
			</g>
		</g>
		<g class="st6">
			<g class="st7">
				<path d="M-65.7,373.8c0-3.8-3.1-6.8-6.8-6.8c-1.2,0-2.3,0.3-3.3,0.9c0,0,0,0,0-0.1c0-7.5-6.1-13.6-13.6-13.6
					c-6.2,0-11.4,4.1-13.1,9.7c-1.2-0.5-2.5-0.8-3.9-0.8c-5.5,0-10,4.5-10,10c0,0.5,0,3.6,0,3.6c0,3.7,3,6.7,6.7,6.7h37.2
					c3.7,0,6.7-3,6.7-6.7C-65.7,376.7-65.7,374.1-65.7,373.8z"/>
			</g>
			<g>
				<path class="st8" d="M-69.2,370.4c0-3.8-3.1-6.8-6.8-6.8c-1.2,0-2.3,0.3-3.3,0.9c0,0,0,0,0-0.1c0-7.5-6.1-13.6-13.6-13.6
					c-6.2,0-11.4,4.1-13.1,9.7c-1.2-0.5-2.5-0.8-3.9-0.8c-5.5,0-10,4.5-10,10c0,0.5,0,3.6,0,3.6c0,3.7,3,6.7,6.7,6.7H-76
					c3.7,0,6.7-3,6.7-6.7C-69.2,373.2-69.2,370.7-69.2,370.4z"/>
			</g>
		</g>
	</g>
	<g class="st5">
		<g class="st9">
			<path d="M-155,412.2h-29.6c-1.9,0-3.5,1.6-3.5,3.5v48.9c0,1.9,1.6,3.5,3.5,3.5h36.9c1.9,0,3.5-1.6,3.5-3.5V423L-155,412.2z"/>
			<path d="M-155,419.6c0,1.9,1.6,3.5,3.5,3.5h7.4l-10.9-10.9V419.6z"/>
			<rect x="-164.9" y="441.9" width="13.6" height="15"/>
			<rect x="-179.3" y="424.2" width="17.2" height="3.2"/>
			<rect x="-179.3" y="430.1" width="28" height="3.2"/>
			<rect x="-179.3" y="436" width="28" height="3.2"/>
			<rect x="-179.3" y="441.9" width="11.6" height="3.2"/>
			<rect x="-179.3" y="447.7" width="11.6" height="3.2"/>
			<rect x="-179.3" y="453.6" width="11.6" height="3.2"/>
		</g>
		<g class="st6">
			<g>
				<path class="st10" d="M-160,407.2h-29.5c-1.9,0-3.5,1.6-3.5,3.5v48.9c0,1.9,1.6,3.5,3.5,3.5h36.9c1.9,0,3.5-1.6,3.5-3.5V418
					L-160,407.2z"/>
				<path class="st11" d="M-160,414.6c0,1.9,1.6,3.5,3.5,3.5h7.4l-10.9-10.9V414.6z"/>
				<rect x="-169.9" y="436.9" class="st12" width="13.6" height="15"/>
				<rect x="-184.3" y="419.2" class="st12" width="17.2" height="3.2"/>
				<rect x="-184.3" y="425.1" class="st12" width="28" height="3.2"/>
				<rect x="-184.3" y="431" class="st12" width="28" height="3.2"/>
				<rect x="-184.3" y="436.9" class="st12" width="11.6" height="3.2"/>
				<rect x="-184.3" y="442.7" class="st12" width="11.6" height="3.2"/>
				<rect x="-184.3" y="448.6" class="st12" width="11.6" height="3.2"/>
			</g>
		</g>
	</g>
	<g class="st5">
		<g class="st9">
			<path d="M-186.8,381.5h-29.5c-1.9,0-3.5,1.6-3.5,3.5v48.9c0,1.9,1.6,3.5,3.5,3.5h36.9c1.9,0,3.5-1.6,3.5-3.5v-41.5L-186.8,381.5z
				"/>
			<path d="M-186.8,388.9c0,1.9,1.6,3.5,3.5,3.5h7.4l-10.9-10.9V388.9z"/>
			<path d="M-200.2,394.2c-4.4-1.3-5.7-0.9-5.7-0.9v3.9v1.7v7.8c-0.7-0.3-1.5-0.4-2.4-0.4c-2.6,0-4.6,1.3-4.6,2.8s2.1,2.8,4.6,2.8
				c2.6,0,4.6-1.3,4.6-2.8c0-0.3-0.1-0.6-0.3-0.9v-9.6c1.3-0.1,3.2,0.1,4.9,1.4c3.2,2.4,5.9,0,5.9,0
				C-196.9,399.7-196.7,395.2-200.2,394.2z"/>
			<path d="M-186.4,410.8l-13.1-6.8v13.4c-0.7-0.3-1.5-0.4-2.4-0.4c-2.6,0-4.6,1.3-4.6,2.8s2.1,2.8,4.6,2.8c2.6,0,4.6-1.3,4.6-2.8
				c0-0.3-0.1-0.6-0.3-0.9v-7.2l9.3,4.8v6.9c-0.7-0.3-1.5-0.4-2.4-0.4c-2.6,0-4.6,1.3-4.6,2.8c0,1.6,2.1,2.8,4.6,2.8
				c2.6,0,4.6-1.3,4.6-2.8c0-0.3-0.1-0.6-0.3-0.9C-186.4,424.9-186.4,410.8-186.4,410.8z"/>
		</g>
		<g class="st6">
			<g>
				<path class="st8" d="M-191,377.3h-29.6c-1.9,0-3.5,1.6-3.5,3.5v48.9c0,1.9,1.6,3.5,3.5,3.5h36.9c1.9,0,3.5-1.6,3.5-3.5v-41.5
					L-191,377.3z"/>
				<path class="st13" d="M-191,384.7c0,1.9,1.6,3.5,3.5,3.5h7.4l-10.9-10.9V384.7z"/>
				<path class="st14" d="M-204.5,389.9c-4.4-1.3-5.7-0.9-5.7-0.9v3.9v1.7v7.8c-0.7-0.3-1.5-0.4-2.4-0.4c-2.6,0-4.6,1.3-4.6,2.8
					s2.1,2.8,4.6,2.8c2.6,0,4.6-1.3,4.6-2.8c0-0.3-0.1-0.6-0.3-0.9v-9.6c1.3-0.1,3.2,0.1,4.9,1.4c3.2,2.4,5.9,0,5.9,0
					C-201.1,395.5-200.9,391-204.5,389.9z"/>
				<path class="st15" d="M-190.6,406.5l-13.1-6.7v13.4c-0.7-0.3-1.5-0.4-2.4-0.4c-2.6,0-4.6,1.3-4.6,2.8s2.1,2.8,4.6,2.8
					c2.6,0,4.6-1.3,4.6-2.8c0-0.3-0.1-0.6-0.3-0.9v-7.2l9.3,4.8v6.9c-0.7-0.3-1.5-0.4-2.4-0.4c-2.6,0-4.6,1.3-4.6,2.8
					c0,1.6,2.1,2.8,4.6,2.8c2.6,0,4.6-1.3,4.6-2.8c0-0.3-0.1-0.6-0.3-0.9C-190.6,420.7-190.6,406.5-190.6,406.5z"/>
			</g>
		</g>
	</g>
	<g>
		<g class="st7">
			<path d="M112.6,347.9c0-6.7,0.9-13.1,2.5-19.3C68.8,320.7,7,313.8-27,313.8c-33,0-92,6.5-137.8,14.1c1.8,6.4,2.7,13.1,2.7,20
				c0,40.3-31.6,73.1-71.4,75.1c4.9,66.4,22,156.7,42.2,205.4C-157.9,709.1-42.4,780.1-27,792.7c15.3-12.5,130.9-83.5,164.3-164.3
				c20.2-48.8,37.3-139.4,42.2-205.8C141.8,418.4,112.6,386.6,112.6,347.9z"/>
			<path d="M-27,351.3c-22.2,0-60.1,3.4-98.1,8.5c-4.4,41.3-30.9,76-67.8,91.7c3.5,29.9,8.9,61.3,15.2,89.7
				c6.4,29,13.8,54.9,21.2,72.6C-134.3,667.6-62.6,721-27,746.2l0.1-0.1v-205v-190C-26.9,351.3-27,351.3-27,351.3z"/>
			<path d="M75.7,360.5c-39.2-5.5-79.6-9.2-102.6-9.2v190v205C8.8,721,80.3,667.7,102.5,614c7.4-17.8,14.8-43.6,21.2-72.6
				c6.4-29,11.9-61.2,15.4-91.7C104.6,433.2,80.1,399.7,75.7,360.5z"/>
		</g>
		<g>
			<g>
				<path class="st16" d="M101.9,337.2c0-6.7,0.9-13.1,2.5-19.3C58.1,310-3.7,303.1-37.7,303.1c-33,0-92,6.5-137.8,14.1
					c1.8,6.4,2.7,13.1,2.7,20c0,40.3-31.6,73.1-71.4,75.1c4.9,66.4,22,156.7,42.2,205.4C-168.6,698.4-53.1,769.4-37.7,782
					c15.3-12.5,130.9-83.5,164.3-164.3c20.2-48.8,37.3-139.4,42.2-205.8C131.2,407.7,101.9,375.9,101.9,337.2z"/>
				<g>
					<path class="st17" d="M-37.7,340.7c-22.2,0-60.1,3.4-98.1,8.5c-4.4,41.3-30.9,76-67.8,91.7c3.5,29.9,8.9,61.3,15.2,89.7
						c6.4,29,13.8,54.9,21.2,72.6C-145,657-73.3,710.4-37.7,735.6l0.1-0.1v-205v-190C-37.6,340.7-37.7,340.7-37.7,340.7z"/>
					<path class="st18" d="M65,349.8c-39.2-5.5-79.6-9.2-102.6-9.2v190v205C-1.9,710.3,69.6,657,91.8,603.3
						c7.4-17.8,14.8-43.6,21.2-72.6c6.4-29,11.9-61.2,15.4-91.7C93.9,422.5,69.4,389.1,65,349.8z"/>
				</g>
			</g>
		</g>
	</g>
	<g class="st5">
		<g class="st9">
			<path d="M-158.6,626.4c0,2.2-1.8,4-4,4h-60.3c-2.2,0-4-1.8-4-4V543c0-2.2,1.8-4,4-4h60.2c2.2,0,4,1.8,4,4L-158.6,626.4
				L-158.6,626.4z"/>
			<path d="M-165.6,615.4c0,2.2-1.8,4-4,4h-46.3c-2.2,0-4-1.8-4-4v-64c0-2.2,1.8-4,4-4h46.3c2.2,0,4,1.8,4,4
				C-165.6,551.4-165.6,615.4-165.6,615.4z"/>
			<path d="M-191.1,543.7c0,0.9-0.7,1.7-1.7,1.7c-0.9,0-1.7-0.7-1.7-1.7c0-0.9,0.7-1.7,1.7-1.7C-191.9,542-191.1,542.7-191.1,543.7z
				"/>
			<path d="M-189.1,625c0,2-1.7,3.7-3.7,3.7s-3.7-1.7-3.7-3.7s1.7-3.7,3.7-3.7C-190.7,621.3-189.1,622.9-189.1,625z"/>
			<path d="M-180.2,582.6h-25.1c-2,0-3.6,1.6-3.6,3.6v1.1v20c0,2,1.6,3.6,3.6,3.6h25.1c2,0,3.6-1.6,3.6-3.6v-20v-1.1
				C-176.6,584.2-178.2,582.6-180.2,582.6z"/>
			<path d="M-181.9,582.6h-3.1v-10.5c0-3.5-2.8-6.3-6.3-6.3h-3c-3.5,0-6.3,2.8-6.3,6.3v10.5h-3.1v-10.5c0-5.2,4.2-9.4,9.4-9.4h3
				c5.2,0,9.4,4.2,9.4,10.5V582.6z"/>
			<path d="M-186.8,602.4l-3.9-6.7c1.4-0.8,2.4-2.3,2.4-4c0-2.5-2-4.5-4.5-4.5s-4.5,2-4.5,4.5c0,1.7,1,3.2,2.4,4l-3.9,6.7
				c-0.4,0.7-0.1,1.3,0.8,1.3h10.4C-186.7,603.7-186.3,603.1-186.8,602.4z"/>
		</g>
		<g class="st6">
			<g>
				<g>
					<path class="st11" d="M-163.6,621.4c0,2.2-1.8,4-4,4h-60.3c-2.2,0-4-1.8-4-4V538c0-2.2,1.8-4,4-4h60.2c2.2,0,4,1.8,4,4
						L-163.6,621.4L-163.6,621.4z"/>
					<path class="st12" d="M-170.6,610.4c0,2.2-1.8,4-4,4h-46.3c-2.2,0-4-1.8-4-4v-64c0-2.2,1.8-4,4-4h46.3c2.2,0,4,1.8,4,4
						C-170.6,546.4-170.6,610.4-170.6,610.4z"/>
					<circle class="st10" cx="-197.8" cy="538.7" r="1.7"/>
					<path class="st10" d="M-194.1,620c0,2-1.7,3.7-3.7,3.7s-3.7-1.7-3.7-3.7s1.7-3.7,3.7-3.7C-195.7,616.3-194.1,617.9-194.1,620z"
						/>
				</g>
				<g>
					<path class="st19" d="M-185.2,577.6h-25.1c-2,0-3.6,1.6-3.6,3.6v1.1v20c0,2,1.6,3.6,3.6,3.6h25.1c2,0,3.6-1.6,3.6-3.6v-20v-1.1
						C-181.6,579.2-183.2,577.6-185.2,577.6z"/>
					<g>
						<path class="st19" d="M-186.9,577.6h-3.1v-10.5c0-3.5-2.8-6.3-6.3-6.3h-3c-3.5,0-6.3,2.8-6.3,6.3v10.5h-3.1v-10.5
							c0-5.2,4.2-9.4,9.4-9.4h3c5.2,0,9.4,4.2,9.4,10.5V577.6z"/>
					</g>
					<path class="st12" d="M-191.8,597.4l-3.9-6.7c1.4-0.8,2.4-2.3,2.4-4c0-2.5-2-4.5-4.5-4.5s-4.5,2-4.5,4.5c0,1.7,1,3.2,2.4,4
						l-3.9,6.7c-0.4,0.7-0.1,1.3,0.8,1.3h10.4C-191.7,598.7-191.3,598.1-191.8,597.4z"/>
				</g>
			</g>
		</g>
	</g>
	<g class="st5">
		<g class="st9">
			<path d="M147.3,443v-41.7c0-1.7-0.9-3.1-2.3-3.9l-25.1,25.1l24.6,24.6C146.2,446.5,147.3,444.9,147.3,443z"/>
			<path d="M70,397.4c-1.3,0.8-2.3,2.2-2.3,3.9V443c0,1.9,1.2,3.5,2.8,4.1l24.6-24.6L70,397.4z"/>
			<path d="M142.9,447.4c0.6,0,1.1-0.1,1.6-0.3l-24.6-24.6l-9.3,9.3c-1.7,1.7-4.6,1.7-6.3,0l-9.3-9.3l-24.6,24.6
				c0.5,0.2,1.1,0.3,1.6,0.3H142.9z"/>
			<path d="M110.7,431.8l34.4-34.4c-0.7-0.4-1.4-0.6-2.2-0.6H72.2c-0.8,0-1.5,0.2-2.2,0.6l34.4,34.4
				C106.1,433.6,108.9,433.6,110.7,431.8z"/>
			<path d="M113.2,424.1c-1.9,1-3.9,1.4-6.3,1.4c-5.8,0-10.7-4.2-10.7-11c0-7.3,5-13.6,12.9-13.6c6.1,0,10.3,4.3,10.3,10.2
				c0,5.3-3,8.4-6.3,8.4c-1.4,0-2.7-1-2.6-3.1h-0.1c-1.2,2.1-2.9,3.1-5,3.1c-2,0-3.8-1.7-3.8-4.4c0-4.4,3.5-8.4,8.4-8.4
				c1.5,0,2.9,0.3,3.8,0.7l-1.2,6.4c-0.5,2.7-0.1,3.9,1.1,4c1.8,0,3.8-2.4,3.8-6.5c0-5.1-3.1-8.8-8.5-8.8c-5.8,0-10.6,4.6-10.6,11.7
				c0,5.9,3.8,9.5,9.1,9.5c2,0,3.9-0.4,5.3-1.2L113.2,424.1z M111.3,408.9c-0.4-0.1-1-0.2-1.8-0.2c-3.1,0-5.6,2.9-5.6,6.4
				c0,1.6,0.8,2.7,2.3,2.7c2,0,3.9-2.6,4.3-4.8L111.3,408.9z"/>
		</g>
		<g class="st6">
			<g>
				<path class="st11" d="M142.3,438v-41.7c0-1.7-0.9-3.1-2.3-3.9l-25.1,25.1l24.6,24.6C141.2,441.5,142.3,439.9,142.3,438z"/>
				<path class="st11" d="M65,392.4c-1.3,0.8-2.3,2.2-2.3,3.9V438c0,1.9,1.2,3.5,2.8,4.1l24.6-24.6L65,392.4z"/>
				<path class="st12" d="M137.9,442.4c0.6,0,1.1-0.1,1.6-0.3l-24.6-24.6l-9.3,9.3c-1.7,1.7-4.6,1.7-6.3,0l-9.3-9.3l-24.6,24.6
					c0.5,0.2,1.1,0.3,1.6,0.3H137.9z"/>
				<path class="st10" d="M105.7,426.8l34.4-34.4c-0.7-0.4-1.4-0.6-2.2-0.6H67.2c-0.8,0-1.5,0.2-2.2,0.6l34.4,34.4
					C101.1,428.6,103.9,428.6,105.7,426.8z"/>
				<g>
					<path class="st8" d="M108.2,419.1c-1.9,1-3.9,1.4-6.3,1.4c-5.8,0-10.7-4.2-10.7-11c0-7.3,5-13.6,12.9-13.6
						c6.1,0,10.3,4.3,10.3,10.2c0,5.3-3,8.4-6.3,8.4c-1.4,0-2.7-1-2.6-3.1h-0.1c-1.2,2.1-2.9,3.1-5,3.1c-2,0-3.8-1.7-3.8-4.4
						c0-4.4,3.5-8.4,8.4-8.4c1.5,0,2.9,0.3,3.8,0.7l-1.2,6.4c-0.5,2.7-0.1,3.9,1.1,4c1.8,0,3.8-2.4,3.8-6.5c0-5.1-3.1-8.8-8.5-8.8
						c-5.8,0-10.6,4.6-10.6,11.7c0,5.9,3.8,9.5,9.1,9.5c2,0,3.9-0.4,5.3-1.2L108.2,419.1z M106.3,403.9c-0.4-0.1-1-0.2-1.8-0.2
						c-3.1,0-5.6,2.9-5.6,6.4c0,1.6,0.8,2.7,2.3,2.7c2,0,3.9-2.6,4.3-4.8L106.3,403.9z"/>
				</g>
			</g>
		</g>
	</g>
	<g class="st5">
		<g class="st9">
			<path d="M-136.8,660.2c0,2.2-1.8,4-4,4h-31.5c-2.2,0-4-1.8-4-4v-54.5c0-2.2,1.8-4,4-4h31.5c2.2,0,4,1.8,4,4V660.2z"/>
			<path d="M-151.8,659.6c0,1.2-1,2.2-2.2,2.2h-5.2c-1.2,0-2.2-1-2.2-2.2l0,0c0-1.2,1-2.2,2.2-2.2h5.2
				C-152.7,657.4-151.8,658.4-151.8,659.6L-151.8,659.6z"/>
			<path d="M-151.8,605.3c0,0.7-0.5,1.2-1.2,1.2h-7.2c-0.7,0-1.2-0.5-1.2-1.2l0,0c0-0.7,0.5-1.2,1.2-1.2h7.2
				C-152.3,604.1-151.8,604.6-151.8,605.3L-151.8,605.3z"/>
			<path d="M-141.7,651c0,2.2-1.8,4-4,4h-21.6c-2.2,0-4-1.8-4-4v-38.5c0-2.2,1.8-4,4-4h21.6c2.2,0,4,1.8,4,4V651z"/>
			<path d="M-146.8,639.6c0,5.4-4.4,9.7-9.7,9.7l0,0c-5.4,0-9.7-4.4-9.7-9.7v-5.4c0-5.4,4.4-9.7,9.7-9.7l0,0c5.4,0,9.7,4.4,9.7,9.7
				V639.6z"/>
			<path class="st20" d="M-154.8,643.4c-1.5,1.4-4.2-0.3-5-4.1c-0.8-3.3,1-7,2.2-8.1c0.9-0.9,3.2-0.4,4,2.5c0.6,2.1-0.4,5.9-1.2,6.7
				c-1.2,1.3-2.7-1-3-2.8c-0.2-1.4,0.5-3.3,1-3.8c0.4-0.4,1.7,0.9,1.2,3"/>
			<path class="st20" d="M-159,628.8c-0.9,0.7-2.9,3-3.1,6.1"/>
			<path class="st20" d="M-153.1,641.5c2.6-2.9,2.8-9.4-0.6-12.6"/>
			<path class="st20" d="M-161.9,638.6c0,1.1,0.7,4.4,2,5.9"/>
		</g>
		<g class="st6">
			<g>
				<path class="st14" d="M-141.8,655.2c0,2.2-1.8,4-4,4h-31.5c-2.2,0-4-1.8-4-4v-54.5c0-2.2,1.8-4,4-4h31.5c2.2,0,4,1.8,4,4V655.2z
					"/>
				<path class="st21" d="M-156.8,654.6c0,1.2-1,2.2-2.2,2.2h-5.2c-1.2,0-2.2-1-2.2-2.2l0,0c0-1.2,1-2.2,2.2-2.2h5.2
					C-157.7,652.4-156.8,653.4-156.8,654.6L-156.8,654.6z"/>
				<path class="st21" d="M-156.8,600.3c0,0.7-0.5,1.2-1.2,1.2h-7.2c-0.7,0-1.2-0.5-1.2-1.2l0,0c0-0.7,0.5-1.2,1.2-1.2h7.2
					C-157.3,599.1-156.8,599.6-156.8,600.3L-156.8,600.3z"/>
				<path class="st15" d="M-146.7,646c0,2.2-1.8,4-4,4h-21.6c-2.2,0-4-1.8-4-4v-38.5c0-2.2,1.8-4,4-4h21.6c2.2,0,4,1.8,4,4V646z"/>
				<path class="st19" d="M-151.8,634.6c0,5.4-4.4,9.7-9.7,9.7l0,0c-5.4,0-9.7-4.4-9.7-9.7v-5.4c0-5.4,4.4-9.7,9.7-9.7l0,0
					c5.4,0,9.7,4.4,9.7,9.7V634.6z"/>
				<g>
					<path class="st22" d="M-159.8,638.4c-1.5,1.4-4.2-0.3-5-4.1c-0.8-3.3,1-7,2.2-8.1c0.9-0.9,3.2-0.4,4,2.5
						c0.6,2.1-0.4,5.9-1.2,6.7c-1.2,1.3-2.7-1-3-2.8c-0.2-1.4,0.5-3.3,1-3.8c0.4-0.4,1.7,0.9,1.2,3"/>
					<path class="st22" d="M-164,623.8c-0.9,0.7-2.9,3-3.1,6.1"/>
					<path class="st22" d="M-158.1,636.5c2.6-2.9,2.8-9.4-0.6-12.6"/>
					<path class="st22" d="M-166.9,633.6c0,1.1,0.7,4.4,2,5.9"/>
				</g>
			</g>
		</g>
	</g>
	<g class="st5">
		<g class="st9">
			<path d="M177.7,688.3c0,2.5-2,4.5-4.5,4.5H69.7c-2.5,0-4.5-2-4.5-4.5v-66.7c0-2.5,2-4.5,4.5-4.5h103.4c2.5,0,4.5,2,4.5,4.5v66.7
				H177.7z"/>
			<path d="M75.1,685.6c-1.5,0-2.7-1.2-2.7-2.7v-55.8c0-1.5,1.2-2.7,2.7-2.7h92.6c1.5,0,2.7,1.2,2.7,2.7v55.8c0,1.5-1.2,2.7-2.7,2.7
				H75.1z"/>
			<path d="M187.7,689.1c0,2.1-2,3.8-4.5,3.8H59.6c-2.5,0-4.5-1.7-4.5-3.8v-5.6c0-2.1,2-3.8,4.5-3.8h123.6c2.5,0,4.5,1.7,4.5,3.8
				V689.1z"/>
			<path d="M131.4,685.5c0,1.7-1.8,3.1-4,3.1h-12c-2.2,0-4-1.4-4-3.1l0,0c0-1.7,1.8-3.1,4-3.1h12
				C129.6,682.4,131.4,683.8,131.4,685.5L131.4,685.5z"/>
			<circle cx="121.4" cy="620.7" r="2.3"/>
			<circle cx="121.4" cy="640.8" r="11.5"/>
			<path d="M127.1,643.8c0-1.9-1.5-3.4-3.4-3.4h-0.9c1.4-0.5,2.4-1.9,2.4-3.5c0-2.1-1.7-3.7-3.7-3.7c-2.1,0-3.7,1.7-3.7,3.7
				c0,1.6,1,2.9,2.4,3.5h-0.9c-1.9,0-3.4,1.5-3.4,3.4l-0.8,4.7h13L127.1,643.8z"/>
			<path d="M148.5,665.4c0,3.4-2.7,6.1-6.1,6.1h-41.6c-3.4,0-6.1-2.7-6.1-6.1l0,0c0-3.4,2.7-6.1,6.1-6.1h41.6
				C145.7,659.3,148.5,662,148.5,665.4L148.5,665.4z"/>
			<polygon points="106,663.3 105.2,662.1 102.5,664.1 102.5,660.8 101.1,660.8 101.1,664.1 98.4,662.1 97.6,663.3 100.6,665.4 
				97.6,667.5 98.4,668.6 101.1,666.7 101.1,670 102.5,670 102.5,666.7 105.2,668.6 106,667.5 103,665.4 			"/>
			<polygon points="115.8,663.3 115,662.1 112.3,664.1 112.3,660.8 111,660.8 111,664.1 108.3,662.1 107.5,663.3 110.5,665.4 
				107.5,667.5 108.3,668.6 111,666.7 111,670 112.3,670 112.3,666.7 115,668.6 115.8,667.5 112.8,665.4 			"/>
			<polygon points="125.6,663.3 124.8,662.1 122.1,664.1 122.1,660.8 120.8,660.8 120.8,664.1 118.1,662.1 117.3,663.3 120.3,665.4 
				117.3,667.5 118.1,668.6 120.8,666.7 120.8,670 122.1,670 122.1,666.7 124.8,668.6 125.6,667.5 122.6,665.4 			"/>
			<polygon points="135.5,663.3 134.7,662.1 132,664.1 132,660.8 130.6,660.8 130.6,664.1 127.9,662.1 127.1,663.3 130.1,665.4 
				127.1,667.5 127.9,668.6 130.6,666.7 130.6,670 132,670 132,666.7 134.7,668.6 135.5,667.5 132.5,665.4 			"/>
			<polygon points="145.3,663.3 144.5,662.1 141.8,664.1 141.8,660.8 140.4,660.8 140.4,664.1 137.7,662.1 137,663.3 139.9,665.4 
				137,667.5 137.7,668.6 140.4,666.7 140.4,670 141.8,670 141.8,666.7 144.5,668.6 145.3,667.5 142.3,665.4 			"/>
		</g>
		<g class="st6">
			<g>
				<path class="st11" d="M172.7,683.3c0,2.5-2,4.5-4.5,4.5H64.7c-2.5,0-4.5-2-4.5-4.5v-66.7c0-2.5,2-4.5,4.5-4.5h103.4
					c2.5,0,4.5,2,4.5,4.5v66.7H172.7z"/>
				<path class="st12" d="M70.1,680.6c-1.5,0-2.7-1.2-2.7-2.7v-55.8c0-1.5,1.2-2.7,2.7-2.7h92.6c1.5,0,2.7,1.2,2.7,2.7v55.8
					c0,1.5-1.2,2.7-2.7,2.7H70.1z"/>
				<path class="st10" d="M182.7,684.1c0,2.1-2,3.8-4.5,3.8H54.6c-2.5,0-4.5-1.7-4.5-3.8v-5.6c0-2.1,2-3.8,4.5-3.8h123.6
					c2.5,0,4.5,1.7,4.5,3.8V684.1z"/>
				<path class="st11" d="M126.4,680.5c0,1.7-1.8,3.1-4,3.1h-12c-2.2,0-4-1.4-4-3.1l0,0c0-1.7,1.8-3.1,4-3.1h12
					C124.6,677.4,126.4,678.8,126.4,680.5L126.4,680.5z"/>
				<circle class="st12" cx="116.4" cy="615.7" r="2.3"/>
				<circle class="st11" cx="116.4" cy="635.8" r="11.5"/>
				<path class="st8" d="M122.1,638.8c0-1.9-1.5-3.4-3.4-3.4h-0.9c1.4-0.5,2.4-1.9,2.4-3.5c0-2.1-1.7-3.7-3.7-3.7
					c-2.1,0-3.7,1.7-3.7,3.7c0,1.6,1,2.9,2.4,3.5h-0.9c-1.9,0-3.4,1.5-3.4,3.4l-0.8,4.7h13L122.1,638.8z"/>
				<path class="st8" d="M143.5,660.4c0,3.4-2.7,6.1-6.1,6.1H95.8c-3.4,0-6.1-2.7-6.1-6.1l0,0c0-3.4,2.7-6.1,6.1-6.1h41.6
					C140.7,654.3,143.5,657,143.5,660.4L143.5,660.4z"/>
				<polygon class="st10" points="101,658.3 100.2,657.1 97.5,659.1 97.5,655.8 96.1,655.8 96.1,659.1 93.4,657.1 92.6,658.3 
					95.6,660.4 92.6,662.5 93.4,663.6 96.1,661.7 96.1,665 97.5,665 97.5,661.7 100.2,663.6 101,662.5 98,660.4 				"/>
				<polygon class="st10" points="110.8,658.3 110,657.1 107.3,659.1 107.3,655.8 106,655.8 106,659.1 103.3,657.1 102.5,658.3 
					105.5,660.4 102.5,662.5 103.3,663.6 106,661.7 106,665 107.3,665 107.3,661.7 110,663.6 110.8,662.5 107.8,660.4 				"/>
				<polygon class="st10" points="120.6,658.3 119.8,657.1 117.1,659.1 117.1,655.8 115.8,655.8 115.8,659.1 113.1,657.1 
					112.3,658.3 115.3,660.4 112.3,662.5 113.1,663.6 115.8,661.7 115.8,665 117.1,665 117.1,661.7 119.8,663.6 120.6,662.5 
					117.6,660.4 				"/>
				<polygon class="st10" points="130.5,658.3 129.7,657.1 127,659.1 127,655.8 125.6,655.8 125.6,659.1 122.9,657.1 122.1,658.3 
					125.1,660.4 122.1,662.5 122.9,663.6 125.6,661.7 125.6,665 127,665 127,661.7 129.7,663.6 130.5,662.5 127.5,660.4 				"/>
				<polygon class="st10" points="140.3,658.3 139.5,657.1 136.8,659.1 136.8,655.8 135.4,655.8 135.4,659.1 132.7,657.1 132,658.3 
					134.9,660.4 132,662.5 132.7,663.6 135.4,661.7 135.4,665 136.8,665 136.8,661.7 139.5,663.6 140.3,662.5 137.3,660.4 				"/>
			</g>
		</g>
	</g>
	<g class="st5">
		<g class="st9">
			<path d="M98.9,637c0,1.9-1.6,3.5-3.5,3.5H46.1c-1.9,0-3.5-1.6-3.5-3.5v-27.8c0-1.9,1.6-3.5,3.5-3.5h49.3c1.9,0,3.5,1.6,3.5,3.5
				V637z"/>
			<rect x="42.7" y="613.1" width="56.2" height="8.4"/>
			<rect x="49.8" y="625.7" width="22" height="2.6"/>
			<rect x="49.8" y="631.1" width="11" height="2.6"/>
		</g>
		<g class="st6">
			<g>
				<path class="st8" d="M93.9,632c0,1.9-1.6,3.5-3.5,3.5H41.1c-1.9,0-3.5-1.6-3.5-3.5v-27.8c0-1.9,1.6-3.5,3.5-3.5h49.3
					c1.9,0,3.5,1.6,3.5,3.5V632z"/>
				<rect x="37.7" y="608.1" class="st15" width="56.2" height="8.4"/>
				<rect x="44.8" y="620.7" class="st14" width="22" height="2.6"/>
				<rect x="44.8" y="626.1" class="st14" width="11" height="2.6"/>
			</g>
		</g>
	</g>
	<g class="st5">
		<g class="st9">
			<path d="M124.8,523.5c0,0.9-0.7,1.6-1.6,1.6h-14.7c-0.9,0-1.6-0.7-1.6-1.6V497c0-0.9,0.7-1.6,1.6-1.6h14.7c0.9,0,1.6,0.7,1.6,1.6
				V523.5z"/>
			<rect x="109" y="502.3" width="3.6" height="3.8"/>
			<rect x="119" y="502.3" width="3.6" height="3.8"/>
			<path d="M131.3,550.6c0,6.2-5,11.2-11.2,11.2h-8.6c-6.2,0-11.2-5-11.2-11.2v-29.1c0-6.2,5-11.2,11.2-11.2h8.6
				c6.2,0,11.2,5,11.2,11.2V550.6z"/>
			<path d="M111.5,559c-4.6,0-8.4-3.8-8.4-8.4v-29.1c0-4.6,3.8-8.4,8.4-8.4h8.6c4.6,0,8.4,3.8,8.4,8.4v29.1c0,4.6-3.8,8.4-8.4,8.4
				H111.5z"/>
			<path d="M123.4,540h-15.3c-0.8,0-1.5,0.7-1.5,1.5v0.5v8.6c0,0.8,0.7,1.5,1.5,1.5h15.3c0.8,0,1.5-0.7,1.5-1.5V542v-0.5
				C125,540.7,124.3,540,123.4,540z"/>
			<path d="M122.4,540h-1.3v-4.5c0-1.5-1.2-2.7-2.7-2.7h-5.2c-1.5,0-2.7,1.2-2.7,2.7v4.5h-1.3v-4.5c0-2.2,1.8-4,4-4h5.2
				c2.2,0,4,1.8,4,4.5V540z"/>
			<path d="M118.4,549.1l-1.7-2.9c0.6-0.3,1-1,1-1.7c0-1.1-0.9-1.9-1.9-1.9c-1.1,0-1.9,0.9-1.9,1.9c0,0.7,0.4,1.4,1,1.7l-1.7,2.9
				c-0.2,0.3,0,0.6,0.3,0.6h4.4C118.4,549.7,118.5,549.4,118.4,549.1z"/>
		</g>
		<g class="st6">
			<g>
				<path class="st21" d="M119.8,518.5c0,0.9-0.7,1.6-1.6,1.6h-14.7c-0.9,0-1.6-0.7-1.6-1.6V492c0-0.9,0.7-1.6,1.6-1.6h14.7
					c0.9,0,1.6,0.7,1.6,1.6V518.5z"/>
				<g>
					<rect x="104" y="497.3" class="st15" width="3.6" height="3.8"/>
					<rect x="114" y="497.3" class="st15" width="3.6" height="3.8"/>
				</g>
				<path class="st15" d="M126.3,545.6c0,6.2-5,11.2-11.2,11.2h-8.6c-6.2,0-11.2-5-11.2-11.2v-29.1c0-6.2,5-11.2,11.2-11.2h8.6
					c6.2,0,11.2,5,11.2,11.2V545.6z"/>
				<path class="st14" d="M106.5,554c-4.6,0-8.4-3.8-8.4-8.4v-29.1c0-4.6,3.8-8.4,8.4-8.4h8.6c4.6,0,8.4,3.8,8.4,8.4v29.1
					c0,4.6-3.8,8.4-8.4,8.4H106.5z"/>
				<g>
					<path class="st19" d="M118.4,535h-15.3c-0.8,0-1.5,0.7-1.5,1.5v0.5v8.6c0,0.8,0.7,1.5,1.5,1.5h15.3c0.8,0,1.5-0.7,1.5-1.5V537
						v-0.5C120,535.7,119.3,535,118.4,535z"/>
					<g>
						<path class="st19" d="M117.4,535h-1.3v-4.5c0-1.5-1.2-2.7-2.7-2.7h-5.2c-1.5,0-2.7,1.2-2.7,2.7v4.5h-1.3v-4.5c0-2.2,1.8-4,4-4
							h5.2c2.2,0,4,1.8,4,4.5V535z"/>
					</g>
					<path class="st14" d="M113.4,544.1l-1.7-2.9c0.6-0.3,1-1,1-1.7c0-1.1-0.9-1.9-1.9-1.9c-1.1,0-1.9,0.9-1.9,1.9
						c0,0.7,0.4,1.4,1,1.7l-1.7,2.9c-0.2,0.3,0,0.6,0.3,0.6h4.4C113.4,544.7,113.5,544.4,113.4,544.1z"/>
				</g>
			</g>
		</g>
	</g>
	<g class="st5">
		<g class="st9">
			<path d="M-41.1,697.4l0.1,9.7c0,3.4,8.9,6.1,19.9,5.9c11-0.1,19.8-3,19.8-6.3l-0.1-9.7"/>
			<path d="M-39.7,695.1c-0.9,0.7-1.4,1.5-1.4,2.3c0,3.4,8.9,6.1,19.9,5.9c11-0.1,19.8-3,19.8-6.3c0-0.8-0.5-1.5-1.3-2.1"/>
			<path d="M-41.2,682.9l0.1,9.7c0,3.4,8.9,6.1,19.9,5.9c11-0.1,19.8-3,19.8-6.3l-0.1-9.7"/>
			<path d="M-39.8,680.6c-0.9,0.7-1.4,1.5-1.4,2.3c0,3.4,8.9,6.1,19.9,5.9c11-0.1,19.8-3,19.8-6.3c0-0.8-0.5-1.5-1.3-2.1"/>
			<path d="M-41.4,668.6l0.1,9.7c0,3.4,8.9,6.1,19.9,5.9c11-0.1,19.8-3,19.8-6.3l-0.1-9.7"/>
			<path d="M-1.7,668.2c0,3.4-8.8,6.2-19.8,6.3s-19.9-2.5-19.9-5.9c0-3.4,8.8-6.2,19.8-6.3C-10.6,662.2-1.7,664.8-1.7,668.2z"/>
			<path d="M-72.7,712.2l0.1,12c0,4.2,11.1,7.5,24.6,7.4c13.6-0.1,24.5-3.7,24.5-7.9l-0.1-12"/>
			<path d="M-70.9,709.4c-1.1,0.9-1.8,1.8-1.8,2.8c0,4.2,11.1,7.5,24.6,7.4c13.6-0.1,24.5-3.7,24.5-7.9c0-0.9-0.6-1.8-1.6-2.7"/>
			<path d="M-72.9,694.2l0.1,12c0,4.2,11.1,7.5,24.6,7.4c13.6-0.1,24.5-3.7,24.5-7.9l-0.1-12"/>
			<path d="M-71.1,691.4c-1.1,0.9-1.8,1.8-1.8,2.8c0,4.2,11.1,7.5,24.6,7.4c13.6-0.1,24.5-3.7,24.5-7.9c0-0.9-0.6-1.8-1.6-2.7"/>
			<path d="M-73,676.6l0.1,12c0,4.2,11.1,7.5,24.6,7.4c13.6-0.1,24.5-3.7,24.5-7.9l-0.1-12"/>
			
				<ellipse transform="matrix(-1.023619e-002 -0.9999 0.9999 -1.023619e-002 -725.2546 634.6955)" cx="-48.5" cy="676.3" rx="7.6" ry="24.6"/>
			<circle cx="-21.9" cy="705.3" r="15.7"/>
			<path d="M-15.1,702.1h-12.8c-1,0-1.8,0.8-1.8,1.8v0.6v10.2c0,1,0.8,1.8,1.8,1.8h12.8c1,0,1.8-0.8,1.8-1.8v-10.2v-0.6
				C-13.3,702.9-14.1,702.1-15.1,702.1z"/>
			<path d="M-16,702.1h-1.6v-5.3c0-1.8-1.4-3.2-3.2-3.2h-1.5c-1.8,0-3.2,1.4-3.2,3.2v5.3h-1.6v-5.3c0-2.6,2.1-4.8,4.8-4.8h1.5
				c2.6,0,4.8,2.1,4.8,5.3L-16,702.1L-16,702.1z"/>
			<path d="M-18.5,712.2l-2-3.4c0.7-0.4,1.2-1.2,1.2-2c0-1.3-1-2.3-2.3-2.3s-2.3,1-2.3,2.3c0,0.9,0.5,1.7,1.2,2l-2,3.4
				c-0.2,0.4,0,0.7,0.4,0.7h5.3C-18.5,712.8-18.3,712.5-18.5,712.2z"/>
		</g>
		<g class="st6">
			<g>
				<g>
					<path class="st14" d="M-46.1,692.4l0.1,9.7c0,3.4,8.9,6.1,19.9,5.9c11-0.1,19.8-3,19.8-6.3l-0.1-9.7"/>
					<path class="st15" d="M-44.7,690.1c-0.9,0.7-1.4,1.5-1.4,2.3c0,3.4,8.9,6.1,19.9,5.9c11-0.1,19.8-3,19.8-6.3
						c0-0.8-0.5-1.5-1.3-2.1"/>
					<path class="st14" d="M-46.2,677.9l0.1,9.7c0,3.4,8.9,6.1,19.9,5.9c11-0.1,19.8-3,19.8-6.3l-0.1-9.7"/>
					<path class="st15" d="M-44.8,675.6c-0.9,0.7-1.4,1.5-1.4,2.3c0,3.4,8.9,6.1,19.9,5.9c11-0.1,19.8-3,19.8-6.3
						c0-0.8-0.5-1.5-1.3-2.1"/>
					<path class="st14" d="M-46.4,663.6l0.1,9.7c0,3.4,8.9,6.1,19.9,5.9c11-0.1,19.8-3,19.8-6.3l-0.1-9.7"/>
					<path class="st15" d="M-6.7,663.2c0,3.4-8.8,6.2-19.8,6.3s-19.9-2.5-19.9-5.9c0-3.4,8.8-6.2,19.8-6.3
						C-15.6,657.2-6.7,659.8-6.7,663.2z"/>
				</g>
				<g>
					<path class="st21" d="M-77.7,707.2l0.1,12c0,4.2,11.1,7.5,24.6,7.4c13.6-0.1,24.5-3.7,24.5-7.9l-0.1-12"/>
					<path class="st14" d="M-75.9,704.4c-1.1,0.9-1.8,1.8-1.8,2.8c0,4.2,11.1,7.5,24.6,7.4c13.6-0.1,24.5-3.7,24.5-7.9
						c0-0.9-0.6-1.8-1.6-2.7"/>
					<path class="st21" d="M-77.9,689.2l0.1,12c0,4.2,11.1,7.5,24.6,7.4c13.6-0.1,24.5-3.7,24.5-7.9l-0.1-12"/>
					<path class="st14" d="M-76.1,686.4c-1.1,0.9-1.8,1.8-1.8,2.8c0,4.2,11.1,7.5,24.6,7.4c13.6-0.1,24.5-3.7,24.5-7.9
						c0-0.9-0.6-1.8-1.6-2.7"/>
					<path class="st21" d="M-78,671.6l0.1,12c0,4.2,11.1,7.5,24.6,7.4c13.6-0.1,24.5-3.7,24.5-7.9l-0.1-12"/>
					
						<ellipse transform="matrix(-1.023619e-002 -0.9999 0.9999 -1.023619e-002 -725.3062 624.6451)" class="st14" cx="-53.5" cy="671.3" rx="7.6" ry="24.6"/>
				</g>
				<circle class="st15" cx="-26.9" cy="700.3" r="15.7"/>
				<g>
					<path class="st19" d="M-20.1,697.1h-12.8c-1,0-1.8,0.8-1.8,1.8v0.6v10.2c0,1,0.8,1.8,1.8,1.8h12.8c1,0,1.8-0.8,1.8-1.8v-10.2
						v-0.6C-18.3,697.9-19.1,697.1-20.1,697.1z"/>
					<g>
						<path class="st19" d="M-21,697.1h-1.6v-5.3c0-1.8-1.4-3.2-3.2-3.2h-1.5c-1.8,0-3.2,1.4-3.2,3.2v5.3h-1.6v-5.3
							c0-2.6,2.1-4.8,4.8-4.8h1.5c2.6,0,4.8,2.1,4.8,5.3L-21,697.1L-21,697.1z"/>
					</g>
					<path class="st15" d="M-23.5,707.2l-2-3.4c0.7-0.4,1.2-1.2,1.2-2c0-1.3-1-2.3-2.3-2.3s-2.3,1-2.3,2.3c0,0.9,0.5,1.7,1.2,2
						l-2,3.4c-0.2,0.4,0,0.7,0.4,0.7h5.3C-23.5,707.8-23.3,707.5-23.5,707.2z"/>
				</g>
			</g>
		</g>
	</g>
	<polyline class="st23" points="-81.2,511.6 -37.9,567.6 38,469.5 	"/>
</g>
</svg>
